<svg viewBox="0 0 600 400" xmlns="http://www.w3.org/2000/svg">
<g transform="translate(48, 364)">
<g>
<rect fill="red" height="4.275049115913556" stroke="black" width="4.727272727272728" x="0" y="-4.275049115913556"/>
<rect fill="red" height="103.53634577603144" stroke="black" width="4.727272727272728" x="4.727272727272728" y="-103.53634577603144"/>
<rect fill="red" height="340" stroke="black" width="4.727272727272723" x="9.454545454545457" y="-340"/>
<rect fill="red" height="319.1591355599214" stroke="black" width="4.727272727272734" x="14.18181818181818" y="-319.1591355599214"/>
<rect fill="red" height="0" stroke="black" width="4.727272727272723" x="18.909090909090914" y="0"/>
<rect fill="red" height="0" stroke="black" width="4.727272727272723" x="23.636363636363637" y="0"/>
<rect fill="red" height="0" stroke="black" width="4.727272727272734" x="28.36363636363636" y="0"/>
<rect fill="red" height="0" stroke="black" width="4.7272727272727195" x="33.09090909090909" y="0"/>
<rect fill="red" height="0" stroke="black" width="4.727272727272734" x="37.81818181818181" y="0"/>
<rect fill="red" height="0" stroke="black" width="4.727272727272727" x="42.54545454545455" y="0"/>
<rect fill="red" height="1.3359528487229861" stroke="black" width="4.727272727272727" x="47.27272727272727" y="-1.3359528487229861"/>
<rect fill="red" height="44.220039292730846" stroke="black" width="4.7272727272727195" x="52" y="-44.220039292730846"/>
<rect fill="red" height="140.94302554027504" stroke="black" width="4.727272727272727" x="56.72727272727272" y="-140.94302554027504"/>
<rect fill="red" height="146.8212180746562" stroke="black" width="4.727272727272741" x="61.454545454545446" y="-146.8212180746562"/>
<rect fill="red" height="0" stroke="black" width="4.7272727272727195" x="66.18181818181819" y="0"/>
<rect fill="red" height="0" stroke="black" width="4.7272727272727195" x="70.9090909090909" y="0"/>
<rect fill="red" height="0" stroke="black" width="4.727272727272748" x="75.63636363636363" y="0"/>
<rect fill="red" height="0" stroke="black" width="4.7272727272727195" x="80.36363636363637" y="0"/>
<rect fill="red" height="0" stroke="black" width="4.727272727272734" x="85.0909090909091" y="0"/>
<rect fill="red" height="0" stroke="black" width="4.7272727272727195" x="89.81818181818183" y="0"/>
<rect fill="red" height="0" stroke="black" width="4.727272727272734" x="94.54545454545455" y="0"/>
<rect fill="red" height="0.40078585461689586" stroke="black" width="4.7272727272727195" x="99.27272727272728" y="-0.40078585461689586"/>
<rect fill="red" height="18.30255402750491" stroke="black" width="4.7272727272727195" x="104" y="-18.30255402750491"/>
<rect fill="red" height="55.17485265225933" stroke="black" width="4.727272727272734" x="108.72727272727272" y="-55.17485265225933"/>
<rect fill="red" height="60.518664047151276" stroke="black" width="4.727272727272734" x="113.45454545454545" y="-60.518664047151276"/>
<rect fill="red" height="0" stroke="black" width="4.727272727272705" x="118.18181818181819" y="0"/>
<rect fill="red" height="0" stroke="black" width="4.727272727272734" x="122.90909090909089" y="0"/>
<rect fill="red" height="0" stroke="black" width="4.727272727272748" x="127.63636363636363" y="0"/>
<rect fill="red" height="0" stroke="black" width="4.7272727272727195" x="132.36363636363637" y="0"/>
<rect fill="red" height="0" stroke="black" width="4.7272727272727195" x="137.0909090909091" y="0"/>
<rect fill="red" height="0" stroke="black" width="4.7272727272727195" x="141.8181818181818" y="0"/>
<rect fill="red" height="0" stroke="black" width="4.7272727272727195" x="146.54545454545453" y="0"/>
<rect fill="red" height="0.26719056974459726" stroke="black" width="4.727272727272748" x="151.27272727272725" y="-0.26719056974459726"/>
<rect fill="red" height="7.614931237721022" stroke="black" width="4.727272727272748" x="156" y="-7.614931237721022"/>
<rect fill="red" height="26.18467583497053" stroke="black" width="4.7272727272727195" x="160.72727272727275" y="-26.18467583497053"/>
<rect fill="red" height="26.31827111984283" stroke="black" width="4.7272727272727195" x="165.45454545454547" y="-26.31827111984283"/>
<rect fill="red" height="0" stroke="black" width="4.7272727272727195" x="170.1818181818182" y="0"/>
<rect fill="red" height="0" stroke="black" width="4.727272727272748" x="174.9090909090909" y="0"/>
<rect fill="red" height="0" stroke="black" width="4.727272727272691" x="179.63636363636365" y="0"/>
<rect fill="red" height="0" stroke="black" width="4.727272727272748" x="184.36363636363635" y="0"/>
<rect fill="red" height="0" stroke="black" width="4.7272727272727195" x="189.0909090909091" y="0"/>
<rect fill="red" height="0" stroke="black" width="4.727272727272748" x="193.8181818181818" y="0"/>
<rect fill="red" height="0.26719056974459726" stroke="black" width="4.727272727272748" x="198.54545454545456" y="-0.26719056974459726"/>
<rect fill="red" height="2.538310412573674" stroke="black" width="4.727272727272691" x="203.2727272727273" y="-2.538310412573674"/>
<rect fill="red" height="10.554027504911591" stroke="black" width="4.727272727272748" x="208" y="-10.554027504911591"/>
<rect fill="red" height="11.75638506876228" stroke="black" width="4.727272727272691" x="212.72727272727275" y="-11.75638506876228"/>
<rect fill="red" height="0" stroke="black" width="4.727272727272748" x="217.45454545454544" y="0"/>
<rect fill="red" height="0" stroke="black" width="4.7272727272727195" x="222.1818181818182" y="0"/>
<rect fill="red" height="0" stroke="black" width="4.727272727272748" x="226.9090909090909" y="0"/>
<rect fill="red" height="0" stroke="black" width="4.7272727272727195" x="231.63636363636365" y="0"/>
<rect fill="red" height="0" stroke="black" width="4.727272727272691" x="236.36363636363637" y="0"/>
<rect fill="red" height="0" stroke="black" width="4.7272727272727195" x="241.09090909090907" y="0"/>
<rect fill="red" height="0" stroke="black" width="4.727272727272748" x="245.81818181818178" y="0"/>
<rect fill="red" height="0.13359528487229863" stroke="black" width="4.7272727272727195" x="250.54545454545453" y="-0.13359528487229863"/>
<rect fill="red" height="1.7367387033398822" stroke="black" width="4.727272727272748" x="255.27272727272725" y="-1.7367387033398822"/>
<rect fill="red" height="3.7406679764243616" stroke="black" width="4.727272727272691" x="260" y="-3.7406679764243616"/>
<rect fill="red" height="4.007858546168959" stroke="black" width="4.727272727272805" x="264.7272727272727" y="-4.007858546168959"/>
<rect fill="red" height="0" stroke="black" width="4.727272727272691" x="269.4545454545455" y="0"/>
<rect fill="red" height="0" stroke="black" width="4.727272727272748" x="274.1818181818182" y="0"/>
<rect fill="red" height="0" stroke="black" width="4.727272727272691" x="278.90909090909093" y="0"/>
<rect fill="red" height="0" stroke="black" width="4.727272727272748" x="283.6363636363636" y="0"/>
<rect fill="red" height="0" stroke="black" width="4.727272727272691" x="288.3636363636364" y="0"/>
<rect fill="red" height="0" stroke="black" width="4.727272727272805" x="293.09090909090907" y="0"/>
<rect fill="red" height="0" stroke="black" width="4.727272727272634" x="297.81818181818187" y="0"/>
<rect fill="red" height="0" stroke="black" width="4.727272727272805" x="302.5454545454545" y="0"/>
<rect fill="red" height="0.26719056974459726" stroke="black" width="4.727272727272691" x="307.2727272727273" y="-0.26719056974459726"/>
<rect fill="red" height="1.3359528487229861" stroke="black" width="4.727272727272748" x="312" y="-1.3359528487229861"/>
<rect fill="red" height="1.068762278978389" stroke="black" width="4.727272727272748" x="316.72727272727275" y="-1.068762278978389"/>
<rect fill="red" height="0" stroke="black" width="4.727272727272691" x="321.4545454545455" y="0"/>
<rect fill="red" height="0" stroke="black" width="4.727272727272748" x="326.1818181818182" y="0"/>
<rect fill="red" height="0" stroke="black" width="4.727272727272691" x="330.90909090909093" y="0"/>
<rect fill="red" height="0" stroke="black" width="4.727272727272748" x="335.6363636363636" y="0"/>
<rect fill="red" height="0" stroke="black" width="4.727272727272748" x="340.3636363636364" y="0"/>
<rect fill="red" height="0" stroke="black" width="4.727272727272691" x="345.0909090909091" y="0"/>
<rect fill="red" height="0" stroke="black" width="4.727272727272691" x="349.8181818181818" y="0"/>
<rect fill="red" height="0.13359528487229863" stroke="black" width="4.727272727272805" x="354.5454545454545" y="-0.13359528487229863"/>
<rect fill="red" height="1.469548133595285" stroke="black" width="4.727272727272691" x="359.2727272727273" y="-1.469548133595285"/>
<rect fill="red" height="0.40078585461689586" stroke="black" width="4.727272727272691" x="364" y="-0.40078585461689586"/>
<rect fill="red" height="0" stroke="black" width="4.727272727272691" x="368.7272727272727" y="0"/>
<rect fill="red" height="0" stroke="black" width="4.727272727272805" x="373.4545454545454" y="0"/>
<rect fill="red" height="0" stroke="black" width="4.727272727272691" x="378.1818181818182" y="0"/>
<rect fill="red" height="0" stroke="black" width="4.727272727272748" x="382.9090909090909" y="0"/>
<rect fill="red" height="0" stroke="black" width="4.727272727272748" x="387.6363636363636" y="0"/>
<rect fill="red" height="0" stroke="black" width="4.727272727272748" x="392.3636363636364" y="0"/>
<rect fill="red" height="0" stroke="black" width="4.727272727272691" x="397.0909090909091" y="0"/>
<rect fill="red" height="0" stroke="black" width="4.727272727272805" x="401.8181818181818" y="0"/>
<rect fill="red" height="0.13359528487229863" stroke="black" width="4.727272727272691" x="406.5454545454546" y="-0.13359528487229863"/>
<rect fill="red" height="0.40078585461689586" stroke="black" width="4.727272727272691" x="411.2727272727273" y="-0.40078585461689586"/>
<rect fill="red" height="0.40078585461689586" stroke="black" width="4.727272727272691" x="416" y="-0.40078585461689586"/>
<rect fill="red" height="0" stroke="black" width="4.727272727272805" x="420.7272727272727" y="0"/>
<rect fill="red" height="0" stroke="black" width="4.727272727272691" x="425.4545454545455" y="0"/>
<rect fill="red" height="0" stroke="black" width="4.727272727272691" x="430.1818181818182" y="0"/>
<rect fill="red" height="0" stroke="black" width="4.727272727272748" x="434.9090909090909" y="0"/>
<rect fill="red" height="0" stroke="black" width="4.727272727272748" x="439.6363636363636" y="0"/>
<rect fill="red" height="0" stroke="black" width="4.727272727272691" x="444.3636363636364" y="0"/>
<rect fill="red" height="0" stroke="black" width="4.727272727272748" x="449.09090909090907" y="0"/>
<rect fill="red" height="0" stroke="black" width="4.727272727272691" x="453.8181818181818" y="0"/>
<rect fill="red" height="0" stroke="black" width="4.727272727272805" x="458.5454545454545" y="0"/>
<rect fill="red" height="0" stroke="black" width="4.727272727272691" x="463.2727272727273" y="0"/>
<rect fill="red" height="0" stroke="black" width="4.727272727272748" x="468" y="0"/>
<rect fill="red" height="0" stroke="black" width="4.727272727272748" x="472.72727272727275" y="0"/>
<rect fill="red" height="0" stroke="black" width="4.727272727272634" x="477.4545454545455" y="0"/>
<rect fill="red" height="0" stroke="black" width="4.727272727272805" x="482.18181818181813" y="0"/>
<rect fill="red" height="0" stroke="black" width="4.727272727272634" x="486.90909090909093" y="0"/>
<rect fill="red" height="0" stroke="black" width="4.727272727272862" x="491.63636363636357" y="0"/>
<rect fill="red" height="0" stroke="black" width="4.727272727272634" x="496.36363636363643" y="0"/>
<rect fill="red" height="0" stroke="black" width="4.727272727272805" x="501.09090909090907" y="0"/>
<rect fill="red" height="0" stroke="black" width="4.727272727272634" x="505.81818181818187" y="0"/>
<rect fill="red" height="0.26719056974459726" stroke="black" width="4.727272727272748" x="510.5454545454545" y="-0.26719056974459726"/>
<rect fill="red" height="0.13359528487229863" stroke="black" width="4.727272727272748" x="515.2727272727273" y="-0.13359528487229863"/>
</g>
<g>
<g>
<line stroke="black" stroke-width="1" x1="65.63106796116504" x2="65.63106796116504" y1="0" y2="10"/>
<line stroke="black" stroke-width="1" x1="166.60194174757282" x2="166.60194174757282" y1="0" y2="10"/>
<line stroke="black" stroke-width="1" x1="267.5728155339806" x2="267.5728155339806" y1="0" y2="10"/>
<line stroke="black" stroke-width="1" x1="368.54368932038835" x2="368.54368932038835" y1="0" y2="10"/>
<line stroke="black" stroke-width="1" x1="469.5145631067961" x2="469.5145631067961" y1="0" y2="10"/>
</g>
<line stroke="black" stroke-width="1" x1="0" x2="520" y1="0" y2="0"/>
<g>
<text font-size="12" text-anchor="middle" x="65.63106796116504" y="20">
20
</text>
<text font-size="12" text-anchor="middle" x="166.60194174757282" y="20">
40
</text>
<text font-size="12" text-anchor="middle" x="267.5728155339806" y="20">
60
</text>
<text font-size="12" text-anchor="middle" x="368.54368932038835" y="20">
80
</text>
<text font-size="12" text-anchor="middle" x="469.5145631067961" y="20">
100
</text>
</g>
<text font-size="12" text-anchor="middle" x="260" y="30">

</text>
</g>
<g>
<g>
<line stroke="black" stroke-width="1" x1="0" x2="-10" y1="0" y2="0"/>
<line stroke="black" stroke-width="1" x1="0" x2="-10" y1="-66.79764243614932" y2="-66.79764243614932"/>
<line stroke="black" stroke-width="1" x1="0" x2="-10" y1="-133.59528487229863" y2="-133.59528487229863"/>
<line stroke="black" stroke-width="1" x1="0" x2="-10" y1="-200.39292730844792" y2="-200.39292730844792"/>
<line stroke="black" stroke-width="1" x1="0" x2="-10" y1="-267.19056974459727" y2="-267.19056974459727"/>
<line stroke="black" stroke-width="1" x1="0" x2="-10" y1="-333.9882121807466" y2="-333.9882121807466"/>
</g>
<line stroke="black" stroke-width="1" x1="0" x2="0" y1="0" y2="-340"/>
<g>
<text dominant-baseline="middle" font-size="12" text-anchor="end" x="-15" y="0">
0
</text>
<text dominant-baseline="middle" font-size="12" text-anchor="end" x="-15" y="-66.79764243614932">
500
</text>
<text dominant-baseline="middle" font-size="12" text-anchor="end" x="-15" y="-133.59528487229863">
1000
</text>
<text dominant-baseline="middle" font-size="12" text-anchor="end" x="-15" y="-200.39292730844792">
1500
</text>
<text dominant-baseline="middle" font-size="12" text-anchor="end" x="-15" y="-267.19056974459727">
2000
</text>
<text dominant-baseline="middle" font-size="12" text-anchor="end" x="-15" y="-333.9882121807466">
2500
</text>
</g>
<text font-size="12" text-anchor="middle" transform="rotate(-90 -30 -170)" x="-30" y="-170">

</text>
</g>
</g>
</svg>