<svg viewBox="0 0 600 400" xmlns="http://www.w3.org/2000/svg">
<g transform="translate(48, 364)">
<g>
<rect fill="red" height="11.842563566701498" stroke="black" width="8.524590163934427" x="0" y="-11.842563566701498"/>
<rect fill="red" height="158.216649251132" stroke="black" width="8.524590163934427" x="8.524590163934427" y="-158.216649251132"/>
<rect fill="red" height="340" stroke="black" width="8.524590163934427" x="17.049180327868854" y="-340"/>
<rect fill="red" height="242.29885057471265" stroke="black" width="8.524590163934427" x="25.57377049180328" y="-242.29885057471265"/>
<rect fill="red" height="117.35980494601185" stroke="black" width="8.52459016393442" x="34.09836065573771" y="-117.35980494601185"/>
<rect fill="red" height="0" stroke="black" width="8.524590163934434" x="42.62295081967213" y="0"/>
<rect fill="red" height="0" stroke="black" width="8.524590163934413" x="51.14754098360656" y="0"/>
<rect fill="red" height="2.7237896203413445" stroke="black" width="8.524590163934441" x="59.67213114754097" y="-2.7237896203413445"/>
<rect fill="red" height="44.40961337513062" stroke="black" width="8.52459016393442" x="68.19672131147541" y="-44.40961337513062"/>
<rect fill="red" height="86.45071403692093" stroke="black" width="8.52459016393442" x="76.72131147540983" y="-86.45071403692093"/>
<rect fill="red" height="66.67363288052944" stroke="black" width="8.524590163934434" x="85.24590163934425" y="-66.67363288052944"/>
<rect fill="red" height="33.27760362243121" stroke="black" width="8.524590163934434" x="93.77049180327869" y="-33.27760362243121"/>
<rect fill="red" height="0" stroke="black" width="8.52459016393442" x="102.29508196721312" y="0"/>
<rect fill="red" height="0" stroke="black" width="8.524590163934405" x="110.81967213114754" y="0"/>
<rect fill="red" height="0.4737025426680599" stroke="black" width="8.524590163934448" x="119.34426229508195" y="-0.4737025426680599"/>
<rect fill="red" height="11.013584117032392" stroke="black" width="8.524590163934434" x="127.8688524590164" y="-11.013584117032392"/>
<rect fill="red" height="19.895506792058516" stroke="black" width="8.52459016393442" x="136.39344262295083" y="-19.895506792058516"/>
<rect fill="red" height="18.35597352838732" stroke="black" width="8.52459016393442" x="144.91803278688525" y="-18.35597352838732"/>
<rect fill="red" height="9.237199582027168" stroke="black" width="8.52459016393442" x="153.44262295081967" y="-9.237199582027168"/>
<rect fill="red" height="0" stroke="black" width="8.52459016393442" x="161.9672131147541" y="0"/>
<rect fill="red" height="0" stroke="black" width="8.524590163934448" x="170.4918032786885" y="0"/>
<rect fill="red" height="0" stroke="black" width="8.52459016393442" x="179.01639344262296" y="0"/>
<rect fill="red" height="0.11842563566701497" stroke="black" width="8.524590163934391" x="187.54098360655738" y="-0.11842563566701497"/>
<rect fill="red" height="2.9606408916753746" stroke="black" width="8.524590163934477" x="196.06557377049177" y="-2.9606408916753746"/>
<rect fill="red" height="6.158133054684779" stroke="black" width="8.524590163934391" x="204.59016393442624" y="-6.158133054684779"/>
<rect fill="red" height="4.618599791013584" stroke="black" width="8.524590163934448" x="213.11475409836063" y="-4.618599791013584"/>
<rect fill="red" height="2.013235806339255" stroke="black" width="8.52459016393442" x="221.63934426229508" y="-2.013235806339255"/>
<rect fill="red" height="0" stroke="black" width="8.52459016393442" x="230.1639344262295" y="0"/>
<rect fill="red" height="0" stroke="black" width="8.52459016393442" x="238.68852459016392" y="0"/>
<rect fill="red" height="0" stroke="black" width="8.524590163934448" x="247.21311475409834" y="0"/>
<rect fill="red" height="0.7105538140020898" stroke="black" width="8.524590163934448" x="255.7377049180328" y="-0.7105538140020898"/>
<rect fill="red" height="1.6579588993382097" stroke="black" width="8.52459016393442" x="264.26229508196724" y="-1.6579588993382097"/>
<rect fill="red" height="1.3026819923371646" stroke="black" width="8.524590163934477" x="272.78688524590166" y="-1.3026819923371646"/>
<rect fill="red" height="0.5921281783350749" stroke="black" width="8.524590163934363" x="281.31147540983613" y="-0.5921281783350749"/>
<rect fill="red" height="0" stroke="black" width="8.52459016393442" x="289.8360655737705" y="0"/>
<rect fill="red" height="0" stroke="black" width="8.52459016393442" x="298.3606557377049" y="0"/>
<rect fill="red" height="0" stroke="black" width="8.524590163934477" x="306.88524590163934" y="0"/>
<rect fill="red" height="0" stroke="black" width="8.524590163934363" x="315.4098360655738" y="0"/>
<rect fill="red" height="1.1842563566701498" stroke="black" width="8.524590163934477" x="323.9344262295082" y="-1.1842563566701498"/>
<rect fill="red" height="0.11842563566701497" stroke="black" width="8.524590163934363" x="332.45901639344265" y="-0.11842563566701497"/>
<rect fill="red" height="0" stroke="black" width="8.52459016393442" x="340.983606557377" y="0"/>
<rect fill="red" height="0.23685127133402994" stroke="black" width="8.524590163934477" x="349.50819672131144" y="-0.23685127133402994"/>
<rect fill="red" height="0" stroke="black" width="8.52459016393442" x="358.0327868852459" y="0"/>
<rect fill="red" height="0" stroke="black" width="8.52459016393442" x="366.55737704918033" y="0"/>
<rect fill="red" height="0" stroke="black" width="8.52459016393442" x="375.08196721311475" y="0"/>
<rect fill="red" height="0" stroke="black" width="8.524590163934363" x="383.60655737704917" y="0"/>
<rect fill="red" height="0" stroke="black" width="8.524590163934477" x="392.13114754098353" y="0"/>
<rect fill="red" height="0" stroke="black" width="8.524590163934477" x="400.655737704918" y="0"/>
<rect fill="red" height="0.11842563566701497" stroke="black" width="8.524590163934363" x="409.1803278688525" y="-0.11842563566701497"/>
<rect fill="red" height="0" stroke="black" width="8.52459016393442" x="417.70491803278685" y="0"/>
<rect fill="red" height="0" stroke="black" width="8.524590163934533" x="426.22950819672127" y="0"/>
<rect fill="red" height="0" stroke="black" width="8.524590163934363" x="434.7540983606558" y="0"/>
<rect fill="red" height="0" stroke="black" width="8.524590163934363" x="443.27868852459017" y="0"/>
<rect fill="red" height="0" stroke="black" width="8.524590163934477" x="451.80327868852453" y="0"/>
<rect fill="red" height="0" stroke="black" width="8.524590163934477" x="460.327868852459" y="0"/>
<rect fill="red" height="0" stroke="black" width="8.524590163934363" x="468.8524590163935" y="0"/>
<rect fill="red" height="0" stroke="black" width="8.524590163934477" x="477.37704918032784" y="0"/>
<rect fill="red" height="0" stroke="black" width="8.524590163934363" x="485.9016393442623" y="0"/>
<rect fill="red" height="0" stroke="black" width="8.524590163934477" x="494.4262295081967" y="0"/>
<rect fill="red" height="0" stroke="black" width="8.52459016393442" x="502.95081967213116" y="0"/>
<rect fill="red" height="0.11842563566701497" stroke="black" width="8.52459016393442" x="511.4754098360656" y="-0.11842563566701497"/>
</g>
<g>
<g>
<line stroke="black" stroke-width="1" x1="62.758620689655174" x2="62.758620689655174" y1="0" y2="10"/>
<line stroke="black" stroke-width="1" x1="152.41379310344828" x2="152.41379310344828" y1="0" y2="10"/>
<line stroke="black" stroke-width="1" x1="242.06896551724137" x2="242.06896551724137" y1="0" y2="10"/>
<line stroke="black" stroke-width="1" x1="331.7241379310345" x2="331.7241379310345" y1="0" y2="10"/>
<line stroke="black" stroke-width="1" x1="421.37931034482756" x2="421.37931034482756" y1="0" y2="10"/>
<line stroke="black" stroke-width="1" x1="511.0344827586207" x2="511.0344827586207" y1="0" y2="10"/>
</g>
<line stroke="black" stroke-width="1" x1="0" x2="520" y1="0" y2="0"/>
<g>
<text font-size="12" text-anchor="middle" x="62.758620689655174" y="20">
10
</text>
<text font-size="12" text-anchor="middle" x="152.41379310344828" y="20">
20
</text>
<text font-size="12" text-anchor="middle" x="242.06896551724137" y="20">
30
</text>
<text font-size="12" text-anchor="middle" x="331.7241379310345" y="20">
40
</text>
<text font-size="12" text-anchor="middle" x="421.37931034482756" y="20">
50
</text>
<text font-size="12" text-anchor="middle" x="511.0344827586207" y="20">
60
</text>
</g>
<text font-size="12" text-anchor="middle" x="260" y="30">

</text>
</g>
<g>
<g>
<line stroke="black" stroke-width="1" x1="0" x2="-10" y1="0" y2="0"/>
<line stroke="black" stroke-width="1" x1="0" x2="-10" y1="-59.212817833507486" y2="-59.212817833507486"/>
<line stroke="black" stroke-width="1" x1="0" x2="-10" y1="-118.42563566701497" y2="-118.42563566701497"/>
<line stroke="black" stroke-width="1" x1="0" x2="-10" y1="-177.63845350052247" y2="-177.63845350052247"/>
<line stroke="black" stroke-width="1" x1="0" x2="-10" y1="-236.85127133402995" y2="-236.85127133402995"/>
<line stroke="black" stroke-width="1" x1="0" x2="-10" y1="-296.0640891675374" y2="-296.0640891675374"/>
</g>
<line stroke="black" stroke-width="1" x1="0" x2="0" y1="0" y2="-340"/>
<g>
<text dominant-baseline="middle" font-size="12" text-anchor="end" x="-15" y="0">
0
</text>
<text dominant-baseline="middle" font-size="12" text-anchor="end" x="-15" y="-59.212817833507486">
500
</text>
<text dominant-baseline="middle" font-size="12" text-anchor="end" x="-15" y="-118.42563566701497">
1000
</text>
<text dominant-baseline="middle" font-size="12" text-anchor="end" x="-15" y="-177.63845350052247">
1500
</text>
<text dominant-baseline="middle" font-size="12" text-anchor="end" x="-15" y="-236.85127133402995">
2000
</text>
<text dominant-baseline="middle" font-size="12" text-anchor="end" x="-15" y="-296.0640891675374">
2500
</text>
</g>
<text font-size="12" text-anchor="middle" transform="rotate(-90 -30 -170)" x="-30" y="-170">

</text>
</g>
</g>
</svg>