<svg viewBox="0 0 600 400" xmlns="http://www.w3.org/2000/svg">
<g transform="translate(48, 364)">
<g>
<rect fill="red" height="340" stroke="black" width="13.684210526315788" x="0" y="-340"/>
<rect fill="red" height="113.77690802348337" stroke="black" width="13.684210526315788" x="13.684210526315788" y="-113.77690802348337"/>
<rect fill="red" height="45.90998043052838" stroke="black" width="13.684210526315795" x="27.368421052631575" y="-45.90998043052838"/>
<rect fill="red" height="15.303326810176126" stroke="black" width="13.68421052631578" x="41.05263157894737" y="-15.303326810176126"/>
<rect fill="red" height="9.315068493150685" stroke="black" width="13.684210526315795" x="54.73684210526315" y="-9.315068493150685"/>
<rect fill="red" height="4.657534246575342" stroke="black" width="13.684210526315795" x="68.42105263157895" y="-4.657534246575342"/>
<rect fill="red" height="0.6653620352250489" stroke="black" width="13.68421052631578" x="82.10526315789474" y="-0.6653620352250489"/>
<rect fill="red" height="1.3307240704500978" stroke="black" width="13.68421052631578" x="95.78947368421052" y="-1.3307240704500978"/>
<rect fill="red" height="0.6653620352250489" stroke="black" width="13.684210526315823" x="109.4736842105263" y="-0.6653620352250489"/>
<rect fill="red" height="78.51272015655577" stroke="black" width="13.684210526315766" x="123.15789473684212" y="-78.51272015655577"/>
<rect fill="red" height="20.626223091976517" stroke="black" width="13.684210526315809" x="136.8421052631579" y="-20.626223091976517"/>
<rect fill="red" height="4.657534246575342" stroke="black" width="13.68421052631578" x="150.5263157894737" y="-4.657534246575342"/>
<rect fill="red" height="3.9921722113502933" stroke="black" width="13.68421052631578" x="164.21052631578948" y="-3.9921722113502933"/>
<rect fill="red" height="0.6653620352250489" stroke="black" width="13.68421052631578" x="177.89473684210526" y="-0.6653620352250489"/>
<rect fill="red" height="0.6653620352250489" stroke="black" width="13.68421052631578" x="191.57894736842104" y="-0.6653620352250489"/>
<rect fill="red" height="1.3307240704500978" stroke="black" width="13.68421052631578" x="205.26315789473682" y="-1.3307240704500978"/>
<rect fill="red" height="0.6653620352250489" stroke="black" width="13.684210526315809" x="218.9473684210526" y="-0.6653620352250489"/>
<rect fill="red" height="0" stroke="black" width="13.684210526315837" x="232.6315789473684" y="0"/>
<rect fill="red" height="9.315068493150685" stroke="black" width="13.684210526315752" x="246.31578947368425" y="-9.315068493150685"/>
<rect fill="red" height="8.649706457925635" stroke="black" width="13.68421052631578" x="260" y="-8.649706457925635"/>
<rect fill="red" height="1.3307240704500978" stroke="black" width="13.684210526315837" x="273.6842105263158" y="-1.3307240704500978"/>
<rect fill="red" height="0" stroke="black" width="13.68421052631578" x="287.3684210526316" y="0"/>
<rect fill="red" height="0" stroke="black" width="13.68421052631578" x="301.0526315789474" y="0"/>
<rect fill="red" height="0" stroke="black" width="13.68421052631578" x="314.7368421052632" y="0"/>
<rect fill="red" height="0" stroke="black" width="13.684210526315837" x="328.42105263157896" y="0"/>
<rect fill="red" height="0" stroke="black" width="13.684210526315724" x="342.1052631578948" y="0"/>
<rect fill="red" height="0" stroke="black" width="13.684210526315837" x="355.7894736842105" y="0"/>
<rect fill="red" height="1.3307240704500978" stroke="black" width="13.684210526315724" x="369.47368421052636" y="-1.3307240704500978"/>
<rect fill="red" height="0" stroke="black" width="13.684210526315837" x="383.1578947368421" y="0"/>
<rect fill="red" height="0" stroke="black" width="13.684210526315724" x="396.8421052631579" y="0"/>
<rect fill="red" height="0" stroke="black" width="13.684210526315837" x="410.52631578947364" y="0"/>
<rect fill="red" height="0" stroke="black" width="13.684210526315724" x="424.2105263157895" y="0"/>
<rect fill="red" height="0" stroke="black" width="13.684210526315894" x="437.8947368421052" y="0"/>
<rect fill="red" height="0" stroke="black" width="13.684210526315724" x="451.5789473684211" y="0"/>
<rect fill="red" height="0" stroke="black" width="13.684210526315894" x="465.2631578947368" y="0"/>
<rect fill="red" height="0" stroke="black" width="13.68421052631578" x="478.9473684210527" y="0"/>
<rect fill="red" height="0.6653620352250489" stroke="black" width="13.684210526315724" x="492.6315789473685" y="-0.6653620352250489"/>
<rect fill="red" height="0.6653620352250489" stroke="black" width="13.68421052631578" x="506.3157894736842" y="-0.6653620352250489"/>
</g>
<g>
<g>
<line stroke="black" stroke-width="1" x1="126.48648648648648" x2="126.48648648648648" y1="0" y2="10"/>
<line stroke="black" stroke-width="1" x1="267.02702702702703" x2="267.02702702702703" y1="0" y2="10"/>
<line stroke="black" stroke-width="1" x1="407.56756756756755" x2="407.56756756756755" y1="0" y2="10"/>
</g>
<line stroke="black" stroke-width="1" x1="0" x2="520" y1="0" y2="0"/>
<g>
<text font-size="12" text-anchor="middle" x="126.48648648648648" y="20">
10
</text>
<text font-size="12" text-anchor="middle" x="267.02702702702703" y="20">
20
</text>
<text font-size="12" text-anchor="middle" x="407.56756756756755" y="20">
30
</text>
</g>
<text font-size="12" text-anchor="middle" x="260" y="30">

</text>
</g>
<g>
<g>
<line stroke="black" stroke-width="1" x1="0" x2="-10" y1="0" y2="0"/>
<line stroke="black" stroke-width="1" x1="0" x2="-10" y1="-66.53620352250489" y2="-66.53620352250489"/>
<line stroke="black" stroke-width="1" x1="0" x2="-10" y1="-133.07240704500978" y2="-133.07240704500978"/>
<line stroke="black" stroke-width="1" x1="0" x2="-10" y1="-199.6086105675147" y2="-199.6086105675147"/>
<line stroke="black" stroke-width="1" x1="0" x2="-10" y1="-266.14481409001957" y2="-266.14481409001957"/>
<line stroke="black" stroke-width="1" x1="0" x2="-10" y1="-332.68101761252444" y2="-332.68101761252444"/>
</g>
<line stroke="black" stroke-width="1" x1="0" x2="0" y1="0" y2="-340"/>
<g>
<text dominant-baseline="middle" font-size="12" text-anchor="end" x="-15" y="0">
0
</text>
<text dominant-baseline="middle" font-size="12" text-anchor="end" x="-15" y="-66.53620352250489">
100
</text>
<text dominant-baseline="middle" font-size="12" text-anchor="end" x="-15" y="-133.07240704500978">
200
</text>
<text dominant-baseline="middle" font-size="12" text-anchor="end" x="-15" y="-199.6086105675147">
300
</text>
<text dominant-baseline="middle" font-size="12" text-anchor="end" x="-15" y="-266.14481409001957">
400
</text>
<text dominant-baseline="middle" font-size="12" text-anchor="end" x="-15" y="-332.68101761252444">
500
</text>
</g>
<text font-size="12" text-anchor="middle" transform="rotate(-90 -30 -170)" x="-30" y="-170">

</text>
</g>
</g>
</svg>