<svg viewBox="0 0 600 400" xmlns="http://www.w3.org/2000/svg">
<g transform="translate(48, 364)">
<g>
<rect fill="red" height="340" stroke="black" width="14.444444444444446" x="0" y="-340"/>
<rect fill="red" height="129.56609079951787" stroke="black" width="14.444444444444446" x="14.444444444444446" y="-129.56609079951787"/>
<rect fill="red" height="45.351546805946164" stroke="black" width="14.444444444444436" x="28.888888888888893" y="-45.351546805946164"/>
<rect fill="red" height="18.372840498192044" stroke="black" width="14.444444444444457" x="43.33333333333333" y="-18.372840498192044"/>
<rect fill="red" height="8.537565287263961" stroke="black" width="14.444444444444443" x="57.777777777777786" y="-8.537565287263961"/>
<rect fill="red" height="3.961430293290478" stroke="black" width="14.444444444444429" x="72.22222222222223" y="-3.961430293290478"/>
<rect fill="red" height="1.570912012856569" stroke="black" width="14.444444444444443" x="86.66666666666666" y="-1.570912012856569"/>
<rect fill="red" height="71.2374447569305" stroke="black" width="14.444444444444471" x="101.1111111111111" y="-71.2374447569305"/>
<rect fill="red" height="22.880674969867417" stroke="black" width="14.444444444444429" x="115.55555555555557" y="-22.880674969867417"/>
<rect fill="red" height="10.10847730012053" stroke="black" width="14.444444444444457" x="130" y="-10.10847730012053"/>
<rect fill="red" height="3.4150261149055847" stroke="black" width="14.444444444444429" x="144.44444444444446" y="-3.4150261149055847"/>
<rect fill="red" height="1.8441141020490157" stroke="black" width="14.444444444444429" x="158.88888888888889" y="-1.8441141020490157"/>
<rect fill="red" height="0.6830052229811169" stroke="black" width="14.444444444444485" x="173.33333333333331" y="-0.6830052229811169"/>
<rect fill="red" height="0.47810365608678185" stroke="black" width="14.4444444444444" x="187.7777777777778" y="-0.47810365608678185"/>
<rect fill="red" height="12.977099236641221" stroke="black" width="14.444444444444485" x="202.2222222222222" y="-12.977099236641221"/>
<rect fill="red" height="4.781036560867818" stroke="black" width="14.444444444444457" x="216.66666666666669" y="-4.781036560867818"/>
<rect fill="red" height="1.9124146243471274" stroke="black" width="14.444444444444429" x="231.11111111111114" y="-1.9124146243471274"/>
<rect fill="red" height="0.40980313378867017" stroke="black" width="14.444444444444429" x="245.55555555555557" y="-0.40980313378867017"/>
<rect fill="red" height="0.34150261149055844" stroke="black" width="14.4444444444444" x="260" y="-0.34150261149055844"/>
<rect fill="red" height="0.06830052229811169" stroke="black" width="14.444444444444514" x="274.4444444444444" y="-0.06830052229811169"/>
<rect fill="red" height="0.06830052229811169" stroke="black" width="14.444444444444457" x="288.8888888888889" y="-0.06830052229811169"/>
<rect fill="red" height="1.9124146243471274" stroke="black" width="14.4444444444444" x="303.33333333333337" y="-1.9124146243471274"/>
<rect fill="red" height="0.6147047006830052" stroke="black" width="14.444444444444457" x="317.77777777777777" y="-0.6147047006830052"/>
<rect fill="red" height="0.5464041783848935" stroke="black" width="14.4444444444444" x="332.22222222222223" y="-0.5464041783848935"/>
<rect fill="red" height="0.13660104459622338" stroke="black" width="14.444444444444457" x="346.66666666666663" y="-0.13660104459622338"/>
<rect fill="red" height="0.06830052229811169" stroke="black" width="14.444444444444514" x="361.1111111111111" y="-0.06830052229811169"/>
<rect fill="red" height="0.13660104459622338" stroke="black" width="14.4444444444444" x="375.5555555555556" y="-0.13660104459622338"/>
<rect fill="red" height="0" stroke="black" width="14.4444444444444" x="390" y="0"/>
<rect fill="red" height="0.6830052229811169" stroke="black" width="14.444444444444514" x="404.4444444444444" y="-0.6830052229811169"/>
<rect fill="red" height="0.13660104459622338" stroke="black" width="14.444444444444457" x="418.8888888888889" y="-0.13660104459622338"/>
<rect fill="red" height="0.06830052229811169" stroke="black" width="14.4444444444444" x="433.33333333333337" y="-0.06830052229811169"/>
<rect fill="red" height="0" stroke="black" width="14.444444444444514" x="447.77777777777777" y="0"/>
<rect fill="red" height="0" stroke="black" width="14.444444444444343" x="462.2222222222223" y="0"/>
<rect fill="red" height="0" stroke="black" width="14.444444444444514" x="476.66666666666663" y="0"/>
<rect fill="red" height="0" stroke="black" width="14.444444444444457" x="491.11111111111114" y="0"/>
<rect fill="red" height="0.06830052229811169" stroke="black" width="14.4444444444444" x="505.5555555555556" y="-0.06830052229811169"/>
</g>
<g>
<g>
<line stroke="black" stroke-width="1" x1="133.71428571428572" x2="133.71428571428572" y1="0" y2="10"/>
<line stroke="black" stroke-width="1" x1="282.2857142857143" x2="282.2857142857143" y1="0" y2="10"/>
<line stroke="black" stroke-width="1" x1="430.85714285714283" x2="430.85714285714283" y1="0" y2="10"/>
</g>
<line stroke="black" stroke-width="1" x1="0" x2="520" y1="0" y2="0"/>
<g>
<text font-size="12" text-anchor="middle" x="133.71428571428572" y="20">
10
</text>
<text font-size="12" text-anchor="middle" x="282.2857142857143" y="20">
20
</text>
<text font-size="12" text-anchor="middle" x="430.85714285714283" y="20">
30
</text>
</g>
<text font-size="12" text-anchor="middle" x="260" y="30">

</text>
</g>
<g>
<g>
<line stroke="black" stroke-width="1" x1="0" x2="-10" y1="0" y2="0"/>
<line stroke="black" stroke-width="1" x1="0" x2="-10" y1="-68.30052229811169" y2="-68.30052229811169"/>
<line stroke="black" stroke-width="1" x1="0" x2="-10" y1="-136.60104459622337" y2="-136.60104459622337"/>
<line stroke="black" stroke-width="1" x1="0" x2="-10" y1="-204.90156689433508" y2="-204.90156689433508"/>
<line stroke="black" stroke-width="1" x1="0" x2="-10" y1="-273.20208919244675" y2="-273.20208919244675"/>
</g>
<line stroke="black" stroke-width="1" x1="0" x2="0" y1="0" y2="-340"/>
<g>
<text dominant-baseline="middle" font-size="12" text-anchor="end" x="-15" y="0">
0
</text>
<text dominant-baseline="middle" font-size="12" text-anchor="end" x="-15" y="-68.30052229811169">
1000
</text>
<text dominant-baseline="middle" font-size="12" text-anchor="end" x="-15" y="-136.60104459622337">
2000
</text>
<text dominant-baseline="middle" font-size="12" text-anchor="end" x="-15" y="-204.90156689433508">
3000
</text>
<text dominant-baseline="middle" font-size="12" text-anchor="end" x="-15" y="-273.20208919244675">
4000
</text>
</g>
<text font-size="12" text-anchor="middle" transform="rotate(-90 -30 -170)" x="-30" y="-170">

</text>
</g>
</g>
</svg>