<svg viewBox="0 0 600 400" xmlns="http://www.w3.org/2000/svg">
<g transform="translate(48, 364)">
<g>
<rect fill="red" height="340" stroke="black" width="26.000000000000007" x="0" y="-340"/>
<rect fill="red" height="212.5" stroke="black" width="26.000000000000007" x="26.000000000000007" y="-212.5"/>
<rect fill="red" height="128.95299145299145" stroke="black" width="25.999999999999986" x="52.000000000000014" y="-128.95299145299145"/>
<rect fill="red" height="83.27457264957265" stroke="black" width="26.00000000000003" x="78" y="-83.27457264957265"/>
<rect fill="red" height="52.94337606837607" stroke="black" width="25.99999999999997" x="104.00000000000003" y="-52.94337606837607"/>
<rect fill="red" height="31.784188034188034" stroke="black" width="26" x="130" y="-31.784188034188034"/>
<rect fill="red" height="21.340811965811966" stroke="black" width="25.99999999999997" x="156" y="-21.340811965811966"/>
<rect fill="red" height="13.530982905982906" stroke="black" width="26.000000000000085" x="181.99999999999997" y="-13.530982905982906"/>
<rect fill="red" height="8.445512820512821" stroke="black" width="25.999999999999943" x="208.00000000000006" y="-8.445512820512821"/>
<rect fill="red" height="6.3568376068376065" stroke="black" width="26" x="234" y="-6.3568376068376065"/>
<rect fill="red" height="3.6324786324786325" stroke="black" width="26.000000000000057" x="260" y="-3.6324786324786325"/>
<rect fill="red" height="1.5438034188034189" stroke="black" width="25.999999999999943" x="286.00000000000006" y="-1.5438034188034189"/>
<rect fill="red" height="1.0897435897435896" stroke="black" width="26" x="312" y="-1.0897435897435896"/>
<rect fill="red" height="0.8173076923076923" stroke="black" width="25.999999999999943" x="338" y="-0.8173076923076923"/>
<rect fill="red" height="1.0897435897435896" stroke="black" width="26.000000000000057" x="363.99999999999994" y="-1.0897435897435896"/>
<rect fill="red" height="0.2724358974358974" stroke="black" width="26.000000000000114" x="390" y="-0.2724358974358974"/>
<rect fill="red" height="0.2724358974358974" stroke="black" width="25.999999999999886" x="416.0000000000001" y="-0.2724358974358974"/>
<rect fill="red" height="0" stroke="black" width="26" x="442" y="0"/>
<rect fill="red" height="0.09081196581196581" stroke="black" width="26" x="468" y="-0.09081196581196581"/>
<rect fill="red" height="0.09081196581196581" stroke="black" width="26" x="494" y="-0.09081196581196581"/>
</g>
<g>
<g>
<line stroke="black" stroke-width="1" x1="82.10526315789474" x2="82.10526315789474" y1="0" y2="10"/>
<line stroke="black" stroke-width="1" x1="191.57894736842104" x2="191.57894736842104" y1="0" y2="10"/>
<line stroke="black" stroke-width="1" x1="301.05263157894734" x2="301.05263157894734" y1="0" y2="10"/>
<line stroke="black" stroke-width="1" x1="410.5263157894737" x2="410.5263157894737" y1="0" y2="10"/>
<line stroke="black" stroke-width="1" x1="520" x2="520" y1="0" y2="10"/>
</g>
<line stroke="black" stroke-width="1" x1="0" x2="520" y1="0" y2="0"/>
<g>
<text font-size="12" text-anchor="middle" x="82.10526315789474" y="20">
4
</text>
<text font-size="12" text-anchor="middle" x="191.57894736842104" y="20">
8
</text>
<text font-size="12" text-anchor="middle" x="301.05263157894734" y="20">
12
</text>
<text font-size="12" text-anchor="middle" x="410.5263157894737" y="20">
16
</text>
<text font-size="12" text-anchor="middle" x="520" y="20">
20
</text>
</g>
<text font-size="12" text-anchor="middle" x="260" y="30">

</text>
</g>
<g>
<g>
<line stroke="black" stroke-width="1" x1="0" x2="-10" y1="0" y2="0"/>
<line stroke="black" stroke-width="1" x1="0" x2="-10" y1="-90.8119658119658" y2="-90.8119658119658"/>
<line stroke="black" stroke-width="1" x1="0" x2="-10" y1="-181.6239316239316" y2="-181.6239316239316"/>
<line stroke="black" stroke-width="1" x1="0" x2="-10" y1="-272.43589743589746" y2="-272.43589743589746"/>
</g>
<line stroke="black" stroke-width="1" x1="0" x2="0" y1="0" y2="-340"/>
<g>
<text dominant-baseline="middle" font-size="12" text-anchor="end" x="-15" y="0">
0
</text>
<text dominant-baseline="middle" font-size="12" text-anchor="end" x="-15" y="-90.8119658119658">
1000
</text>
<text dominant-baseline="middle" font-size="12" text-anchor="end" x="-15" y="-181.6239316239316">
2000
</text>
<text dominant-baseline="middle" font-size="12" text-anchor="end" x="-15" y="-272.43589743589746">
3000
</text>
</g>
<text font-size="12" text-anchor="middle" transform="rotate(-90 -30 -170)" x="-30" y="-170">

</text>
</g>
</g>
</svg>