<svg viewBox="0 0 600 400" xmlns="http://www.w3.org/2000/svg">
<g transform="translate(48, 364)">
<g>
<rect fill="red" height="11.376336667816489" stroke="black" width="6.933333333333337" x="0" y="-11.376336667816489"/>
<rect fill="red" height="153.05277681959296" stroke="black" width="6.93333333333333" x="6.933333333333337" y="-153.05277681959296"/>
<rect fill="red" height="340" stroke="black" width="6.933333333333334" x="13.866666666666667" y="-340"/>
<rect fill="red" height="241.24870645050018" stroke="black" width="6.933333333333334" x="20.8" y="-241.24870645050018"/>
<rect fill="red" height="0" stroke="black" width="6.933333333333344" x="27.733333333333334" y="0"/>
<rect fill="red" height="0" stroke="black" width="6.933333333333323" x="34.66666666666668" y="0"/>
<rect fill="red" height="0.11728182131769575" stroke="black" width="6.933333333333337" x="41.6" y="-0.11728182131769575"/>
<rect fill="red" height="4.339427388754743" stroke="black" width="6.93333333333333" x="48.53333333333334" y="-4.339427388754743"/>
<rect fill="red" height="61.45567437047258" stroke="black" width="6.933333333333323" x="55.46666666666667" y="-61.45567437047258"/>
<rect fill="red" height="118.22007588823732" stroke="black" width="6.933333333333351" x="62.39999999999999" y="-118.22007588823732"/>
<rect fill="red" height="90.54156605726112" stroke="black" width="6.933333333333323" x="69.33333333333334" y="-90.54156605726112"/>
<rect fill="red" height="0" stroke="black" width="6.933333333333337" x="76.26666666666667" y="0"/>
<rect fill="red" height="0" stroke="black" width="6.933333333333309" x="83.2" y="0"/>
<rect fill="red" height="0" stroke="black" width="6.9333333333333655" x="90.13333333333331" y="0"/>
<rect fill="red" height="1.407381855812349" stroke="black" width="6.933333333333351" x="97.06666666666668" y="-1.407381855812349"/>
<rect fill="red" height="22.40082787167989" stroke="black" width="6.933333333333309" x="104.00000000000003" y="-22.40082787167989"/>
<rect fill="red" height="39.64125560538117" stroke="black" width="6.933333333333323" x="110.93333333333334" y="-39.64125560538117"/>
<rect fill="red" height="31.900655398413246" stroke="black" width="6.933333333333323" x="117.86666666666666" y="-31.900655398413246"/>
<rect fill="red" height="0" stroke="black" width="6.9333333333333655" x="124.79999999999998" y="0"/>
<rect fill="red" height="0" stroke="black" width="6.933333333333337" x="131.73333333333335" y="0"/>
<rect fill="red" height="0" stroke="black" width="6.933333333333337" x="138.66666666666669" y="0"/>
<rect fill="red" height="0" stroke="black" width="6.933333333333309" x="145.60000000000002" y="0"/>
<rect fill="red" height="0.469127285270783" stroke="black" width="6.933333333333337" x="152.53333333333333" y="-0.469127285270783"/>
<rect fill="red" height="7.623318385650224" stroke="black" width="6.933333333333337" x="159.46666666666667" y="-7.623318385650224"/>
<rect fill="red" height="14.894791307347361" stroke="black" width="6.933333333333309" x="166.4" y="-14.894791307347361"/>
<rect fill="red" height="12.783718523628837" stroke="black" width="6.933333333333337" x="173.33333333333331" y="-12.783718523628837"/>
<rect fill="red" height="0" stroke="black" width="6.933333333333337" x="180.26666666666665" y="0"/>
<rect fill="red" height="0" stroke="black" width="6.9333333333333655" x="187.2" y="0"/>
<rect fill="red" height="0" stroke="black" width="6.933333333333309" x="194.13333333333335" y="0"/>
<rect fill="red" height="0.35184546395308725" stroke="black" width="6.933333333333394" x="201.06666666666666" y="-0.35184546395308725"/>
<rect fill="red" height="2.6974818903070026" stroke="black" width="6.933333333333252" x="208.00000000000006" y="-2.6974818903070026"/>
<rect fill="red" height="4.104863746119351" stroke="black" width="6.9333333333333655" x="214.9333333333333" y="-4.104863746119351"/>
<rect fill="red" height="4.69127285270783" stroke="black" width="6.93333333333328" x="221.86666666666667" y="-4.69127285270783"/>
<rect fill="red" height="0" stroke="black" width="6.9333333333333655" x="228.79999999999995" y="0"/>
<rect fill="red" height="0" stroke="black" width="6.933333333333337" x="235.73333333333332" y="0"/>
<rect fill="red" height="0" stroke="black" width="6.933333333333309" x="242.66666666666666" y="0"/>
<rect fill="red" height="0.2345636426353915" stroke="black" width="6.933333333333394" x="249.59999999999997" y="-0.2345636426353915"/>
<rect fill="red" height="0" stroke="black" width="6.933333333333337" x="256.53333333333336" y="0"/>
<rect fill="red" height="1.1728182131769576" stroke="black" width="6.933333333333337" x="263.4666666666667" y="-1.1728182131769576"/>
<rect fill="red" height="1.9937909624008279" stroke="black" width="6.933333333333337" x="270.40000000000003" y="-1.9937909624008279"/>
<rect fill="red" height="1.6419454984477406" stroke="black" width="6.933333333333337" x="277.33333333333337" y="-1.6419454984477406"/>
<rect fill="red" height="0" stroke="black" width="6.933333333333337" x="284.2666666666667" y="0"/>
<rect fill="red" height="0" stroke="black" width="6.93333333333328" x="291.20000000000005" y="0"/>
<rect fill="red" height="0" stroke="black" width="6.933333333333337" x="298.1333333333333" y="0"/>
<rect fill="red" height="0" stroke="black" width="6.933333333333337" x="305.06666666666666" y="0"/>
<rect fill="red" height="0.8209727492238703" stroke="black" width="6.933333333333337" x="312" y="-0.8209727492238703"/>
<rect fill="red" height="1.1728182131769576" stroke="black" width="6.933333333333394" x="318.93333333333334" y="-1.1728182131769576"/>
<rect fill="red" height="0.8209727492238703" stroke="black" width="6.93333333333328" x="325.86666666666673" y="-0.8209727492238703"/>
<rect fill="red" height="0" stroke="black" width="6.93333333333328" x="332.8" y="0"/>
<rect fill="red" height="0" stroke="black" width="6.933333333333337" x="339.7333333333333" y="0"/>
<rect fill="red" height="0" stroke="black" width="6.933333333333394" x="346.66666666666663" y="0"/>
<rect fill="red" height="0" stroke="black" width="6.93333333333328" x="353.6" y="0"/>
<rect fill="red" height="0" stroke="black" width="6.933333333333337" x="360.5333333333333" y="0"/>
<rect fill="red" height="0.469127285270783" stroke="black" width="6.933333333333337" x="367.46666666666664" y="-0.469127285270783"/>
<rect fill="red" height="0.11728182131769575" stroke="black" width="6.933333333333337" x="374.4" y="-0.11728182131769575"/>
<rect fill="red" height="0" stroke="black" width="6.933333333333394" x="381.3333333333333" y="0"/>
<rect fill="red" height="0" stroke="black" width="6.93333333333328" x="388.2666666666667" y="0"/>
<rect fill="red" height="0" stroke="black" width="6.933333333333337" x="395.2" y="0"/>
<rect fill="red" height="0" stroke="black" width="6.933333333333337" x="402.1333333333333" y="0"/>
<rect fill="red" height="0" stroke="black" width="6.933333333333394" x="409.06666666666666" y="0"/>
<rect fill="red" height="0.11728182131769575" stroke="black" width="6.933333333333337" x="416.00000000000006" y="-0.11728182131769575"/>
<rect fill="red" height="0.469127285270783" stroke="black" width="6.93333333333328" x="422.9333333333334" y="-0.469127285270783"/>
<rect fill="red" height="0.2345636426353915" stroke="black" width="6.933333333333337" x="429.8666666666667" y="-0.2345636426353915"/>
<rect fill="red" height="0" stroke="black" width="6.933333333333337" x="436.8" y="0"/>
<rect fill="red" height="0" stroke="black" width="6.93333333333328" x="443.73333333333335" y="0"/>
<rect fill="red" height="0" stroke="black" width="6.93333333333328" x="450.66666666666663" y="0"/>
<rect fill="red" height="0" stroke="black" width="6.933333333333337" x="457.5999999999999" y="0"/>
<rect fill="red" height="0" stroke="black" width="6.933333333333394" x="464.53333333333325" y="0"/>
<rect fill="red" height="0" stroke="black" width="6.933333333333394" x="471.46666666666664" y="0"/>
<rect fill="red" height="0" stroke="black" width="6.93333333333328" x="478.40000000000003" y="0"/>
<rect fill="red" height="0" stroke="black" width="6.933333333333394" x="485.3333333333333" y="0"/>
<rect fill="red" height="0" stroke="black" width="6.933333333333223" x="492.2666666666667" y="0"/>
<rect fill="red" height="0" stroke="black" width="6.933333333333394" x="499.19999999999993" y="0"/>
<rect fill="red" height="0" stroke="black" width="6.933333333333394" x="506.1333333333333" y="0"/>
<rect fill="red" height="0.11728182131769575" stroke="black" width="6.93333333333328" x="513.0666666666667" y="-0.11728182131769575"/>
</g>
<g>
<g>
<line stroke="black" stroke-width="1" x1="117.1830985915493" x2="117.1830985915493" y1="0" y2="10"/>
<line stroke="black" stroke-width="1" x1="263.6619718309859" x2="263.6619718309859" y1="0" y2="10"/>
<line stroke="black" stroke-width="1" x1="410.14084507042253" x2="410.14084507042253" y1="0" y2="10"/>
</g>
<line stroke="black" stroke-width="1" x1="0" x2="520" y1="0" y2="0"/>
<g>
<text font-size="12" text-anchor="middle" x="117.1830985915493" y="20">
20
</text>
<text font-size="12" text-anchor="middle" x="263.6619718309859" y="20">
40
</text>
<text font-size="12" text-anchor="middle" x="410.14084507042253" y="20">
60
</text>
</g>
<text font-size="12" text-anchor="middle" x="260" y="30">

</text>
</g>
<g>
<g>
<line stroke="black" stroke-width="1" x1="0" x2="-10" y1="0" y2="0"/>
<line stroke="black" stroke-width="1" x1="0" x2="-10" y1="-58.64091065884788" y2="-58.64091065884788"/>
<line stroke="black" stroke-width="1" x1="0" x2="-10" y1="-117.28182131769576" y2="-117.28182131769576"/>
<line stroke="black" stroke-width="1" x1="0" x2="-10" y1="-175.92273197654364" y2="-175.92273197654364"/>
<line stroke="black" stroke-width="1" x1="0" x2="-10" y1="-234.56364263539152" y2="-234.56364263539152"/>
<line stroke="black" stroke-width="1" x1="0" x2="-10" y1="-293.2045532942394" y2="-293.2045532942394"/>
</g>
<line stroke="black" stroke-width="1" x1="0" x2="0" y1="0" y2="-340"/>
<g>
<text dominant-baseline="middle" font-size="12" text-anchor="end" x="-15" y="0">
0
</text>
<text dominant-baseline="middle" font-size="12" text-anchor="end" x="-15" y="-58.64091065884788">
500
</text>
<text dominant-baseline="middle" font-size="12" text-anchor="end" x="-15" y="-117.28182131769576">
1000
</text>
<text dominant-baseline="middle" font-size="12" text-anchor="end" x="-15" y="-175.92273197654364">
1500
</text>
<text dominant-baseline="middle" font-size="12" text-anchor="end" x="-15" y="-234.56364263539152">
2000
</text>
<text dominant-baseline="middle" font-size="12" text-anchor="end" x="-15" y="-293.2045532942394">
2500
</text>
</g>
<text font-size="12" text-anchor="middle" transform="rotate(-90 -30 -170)" x="-30" y="-170">

</text>
</g>
</g>
</svg>