<svg viewBox="0 0 600 400" xmlns="http://www.w3.org/2000/svg">
<g transform="translate(48, 364)">
<g>
<rect fill="red" height="10.825657676760983" stroke="black" width="10.000000000000002" x="0" y="-10.825657676760983"/>
<rect fill="red" height="210.64409250546683" stroke="black" width="10.000000000000002" x="10.000000000000002" y="-210.64409250546683"/>
<rect fill="red" height="340" stroke="black" width="9.999999999999996" x="20.000000000000004" y="-340"/>
<rect fill="red" height="199.19886024782983" stroke="black" width="10.000000000000007" x="30" y="-199.19886024782983"/>
<rect fill="red" height="84.46491286197072" stroke="black" width="9.999999999999993" x="40.00000000000001" y="-84.46491286197072"/>
<rect fill="red" height="38.65018885428401" stroke="black" width="10" x="50" y="-38.65018885428401"/>
<rect fill="red" height="2.3656483997084354" stroke="black" width="10" x="60" y="-2.3656483997084354"/>
<rect fill="red" height="45.014909548737656" stroke="black" width="10.000000000000014" x="70" y="-45.014909548737656"/>
<rect fill="red" height="74.81081439268438" stroke="black" width="9.999999999999986" x="80.00000000000001" y="-74.81081439268438"/>
<rect fill="red" height="42.06348154529189" stroke="black" width="10" x="90" y="-42.06348154529189"/>
<rect fill="red" height="18.80127228149228" stroke="black" width="10" x="100" y="-18.80127228149228"/>
<rect fill="red" height="8.324829368497781" stroke="black" width="10" x="110" y="-8.324829368497781"/>
<rect fill="red" height="0.6421045656351467" stroke="black" width="10" x="120" y="-0.6421045656351467"/>
<rect fill="red" height="10.206083095884965" stroke="black" width="10" x="130" y="-10.206083095884965"/>
<rect fill="red" height="16.0751441256378" stroke="black" width="9.999999999999972" x="140" y="-16.0751441256378"/>
<rect fill="red" height="8.302299383738653" stroke="black" width="10.000000000000057" x="149.99999999999997" y="-8.302299383738653"/>
<rect fill="red" height="3.8075674242926247" stroke="black" width="9.999999999999972" x="160.00000000000003" y="-3.8075674242926247"/>
<rect fill="red" height="2.03896362070108" stroke="black" width="10" x="170" y="-2.03896362070108"/>
<rect fill="red" height="0.045059969518255916" stroke="black" width="10" x="180" y="-0.045059969518255916"/>
<rect fill="red" height="1.7460738188324167" stroke="black" width="10" x="190" y="-1.7460738188324167"/>
<rect fill="red" height="3.3119077595918096" stroke="black" width="10" x="200" y="-3.3119077595918096"/>
<rect fill="red" height="1.633423895036777" stroke="black" width="10" x="210" y="-1.633423895036777"/>
<rect fill="red" height="0.8223444437081704" stroke="black" width="10" x="220" y="-0.8223444437081704"/>
<rect fill="red" height="0.3266847790073554" stroke="black" width="10" x="230" y="-0.3266847790073554"/>
<rect fill="red" height="0.011264992379563979" stroke="black" width="10" x="240" y="-0.011264992379563979"/>
<rect fill="red" height="0.4618646875621231" stroke="black" width="10" x="250" y="-0.4618646875621231"/>
<rect fill="red" height="0.6646345503942748" stroke="black" width="10.000000000000057" x="260" y="-0.6646345503942748"/>
<rect fill="red" height="0.45059969518255916" stroke="black" width="9.999999999999943" x="270.00000000000006" y="-0.45059969518255916"/>
<rect fill="red" height="0.09011993903651183" stroke="black" width="10" x="280" y="-0.09011993903651183"/>
<rect fill="red" height="0.07885494665694785" stroke="black" width="9.999999999999943" x="290" y="-0.07885494665694785"/>
<rect fill="red" height="0" stroke="black" width="10.000000000000057" x="299.99999999999994" y="0"/>
<rect fill="red" height="0.13517990855476775" stroke="black" width="10.000000000000057" x="310" y="-0.13517990855476775"/>
<rect fill="red" height="0.18023987807302366" stroke="black" width="9.999999999999943" x="320.00000000000006" y="-0.18023987807302366"/>
<rect fill="red" height="0.09011993903651183" stroke="black" width="10" x="330" y="-0.09011993903651183"/>
<rect fill="red" height="0.09011993903651183" stroke="black" width="10" x="340" y="-0.09011993903651183"/>
<rect fill="red" height="0" stroke="black" width="10" x="350" y="0"/>
<rect fill="red" height="0" stroke="black" width="10" x="360" y="0"/>
<rect fill="red" height="0.011264992379563979" stroke="black" width="10" x="370" y="-0.011264992379563979"/>
<rect fill="red" height="0.07885494665694785" stroke="black" width="10" x="380" y="-0.07885494665694785"/>
<rect fill="red" height="0.011264992379563979" stroke="black" width="10" x="390" y="-0.011264992379563979"/>
<rect fill="red" height="0" stroke="black" width="10" x="400" y="0"/>
<rect fill="red" height="0" stroke="black" width="10" x="410" y="0"/>
<rect fill="red" height="0" stroke="black" width="10" x="420" y="0"/>
<rect fill="red" height="0" stroke="black" width="10" x="430" y="0"/>
<rect fill="red" height="0" stroke="black" width="10" x="440" y="0"/>
<rect fill="red" height="0" stroke="black" width="10" x="450" y="0"/>
<rect fill="red" height="0" stroke="black" width="10" x="460" y="0"/>
<rect fill="red" height="0" stroke="black" width="10" x="470" y="0"/>
<rect fill="red" height="0" stroke="black" width="10" x="480" y="0"/>
<rect fill="red" height="0" stroke="black" width="10" x="490" y="0"/>
<rect fill="red" height="0" stroke="black" width="10" x="500" y="0"/>
<rect fill="red" height="0.011264992379563979" stroke="black" width="10" x="510" y="-0.011264992379563979"/>
</g>
<g>
<g>
<line stroke="black" stroke-width="1" x1="91.76470588235294" x2="91.76470588235294" y1="0" y2="10"/>
<line stroke="black" stroke-width="1" x1="193.72549019607843" x2="193.72549019607843" y1="0" y2="10"/>
<line stroke="black" stroke-width="1" x1="295.6862745098039" x2="295.6862745098039" y1="0" y2="10"/>
<line stroke="black" stroke-width="1" x1="397.6470588235294" x2="397.6470588235294" y1="0" y2="10"/>
<line stroke="black" stroke-width="1" x1="499.6078431372549" x2="499.6078431372549" y1="0" y2="10"/>
</g>
<line stroke="black" stroke-width="1" x1="0" x2="520" y1="0" y2="0"/>
<g>
<text font-size="12" text-anchor="middle" x="91.76470588235294" y="20">
10
</text>
<text font-size="12" text-anchor="middle" x="193.72549019607843" y="20">
20
</text>
<text font-size="12" text-anchor="middle" x="295.6862745098039" y="20">
30
</text>
<text font-size="12" text-anchor="middle" x="397.6470588235294" y="20">
40
</text>
<text font-size="12" text-anchor="middle" x="499.6078431372549" y="20">
50
</text>
</g>
<text font-size="12" text-anchor="middle" x="260" y="30">

</text>
</g>
<g>
<g>
<line stroke="black" stroke-width="1" x1="0" x2="-10" y1="0" y2="0"/>
<line stroke="black" stroke-width="1" x1="0" x2="-10" y1="-112.64992379563978" y2="-112.64992379563978"/>
<line stroke="black" stroke-width="1" x1="0" x2="-10" y1="-225.29984759127956" y2="-225.29984759127956"/>
<line stroke="black" stroke-width="1" x1="0" x2="-10" y1="-337.94977138691934" y2="-337.94977138691934"/>
</g>
<line stroke="black" stroke-width="1" x1="0" x2="0" y1="0" y2="-340"/>
<g>
<text dominant-baseline="middle" font-size="12" text-anchor="end" x="-15" y="0">
0
</text>
<text dominant-baseline="middle" font-size="12" text-anchor="end" x="-15" y="-112.64992379563978">
10000
</text>
<text dominant-baseline="middle" font-size="12" text-anchor="end" x="-15" y="-225.29984759127956">
20000
</text>
<text dominant-baseline="middle" font-size="12" text-anchor="end" x="-15" y="-337.94977138691934">
30000
</text>
</g>
<text font-size="12" text-anchor="middle" transform="rotate(-90 -30 -170)" x="-30" y="-170">

</text>
</g>
</g>
</svg>