<svg viewBox="0 0 600 400" xmlns="http://www.w3.org/2000/svg">
<g transform="translate(48, 364)">
<g>
<rect fill="red" height="3.4830575256107172" stroke="black" width="5.7777777777777795" x="0" y="-3.4830575256107172"/>
<rect fill="red" height="99.1331757289204" stroke="black" width="5.7777777777777795" x="5.7777777777777795" y="-99.1331757289204"/>
<rect fill="red" height="340" stroke="black" width="5.77777777777778" x="11.555555555555559" y="-340"/>
<rect fill="red" height="326.3356973995272" stroke="black" width="5.777777777777779" x="17.33333333333334" y="-326.3356973995272"/>
<rect fill="red" height="0" stroke="black" width="5.777777777777768" x="23.111111111111118" y="0"/>
<rect fill="red" height="0" stroke="black" width="5.777777777777779" x="28.888888888888886" y="0"/>
<rect fill="red" height="0" stroke="black" width="5.777777777777779" x="34.666666666666664" y="0"/>
<rect fill="red" height="0" stroke="black" width="5.777777777777779" x="40.44444444444444" y="0"/>
<rect fill="red" height="0" stroke="black" width="5.777777777777779" x="46.22222222222222" y="0"/>
<rect fill="red" height="1.7415287628053586" stroke="black" width="5.7777777777777715" x="52" y="-1.7415287628053586"/>
<rect fill="red" height="44.87785657998424" stroke="black" width="5.777777777777779" x="57.77777777777777" y="-44.87785657998424"/>
<rect fill="red" height="147.0921985815603" stroke="black" width="5.777777777777779" x="63.55555555555555" y="-147.0921985815603"/>
<rect fill="red" height="140.795902285264" stroke="black" width="5.777777777777786" x="69.33333333333333" y="-140.795902285264"/>
<rect fill="red" height="0" stroke="black" width="5.7777777777777715" x="75.11111111111111" y="0"/>
<rect fill="red" height="0" stroke="black" width="5.777777777777786" x="80.88888888888889" y="0"/>
<rect fill="red" height="0" stroke="black" width="5.7777777777777715" x="86.66666666666667" y="0"/>
<rect fill="red" height="0" stroke="black" width="5.7777777777777715" x="92.44444444444444" y="0"/>
<rect fill="red" height="0" stroke="black" width="5.777777777777786" x="98.22222222222221" y="0"/>
<rect fill="red" height="0" stroke="black" width="5.777777777777786" x="104" y="0"/>
<rect fill="red" height="0.8037825059101655" stroke="black" width="5.777777777777757" x="109.77777777777779" y="-0.8037825059101655"/>
<rect fill="red" height="16.343577620173363" stroke="black" width="5.777777777777786" x="115.55555555555554" y="-16.343577620173363"/>
<rect fill="red" height="60.551615445232464" stroke="black" width="5.7777777777777715" x="121.33333333333333" y="-60.551615445232464"/>
<rect fill="red" height="56.666666666666664" stroke="black" width="5.777777777777786" x="127.1111111111111" y="-56.666666666666664"/>
<rect fill="red" height="0" stroke="black" width="5.7777777777777715" x="132.88888888888889" y="0"/>
<rect fill="red" height="0" stroke="black" width="5.7777777777778" x="138.66666666666666" y="0"/>
<rect fill="red" height="0" stroke="black" width="5.7777777777777715" x="144.44444444444446" y="0"/>
<rect fill="red" height="0" stroke="black" width="5.7777777777777715" x="150.22222222222223" y="0"/>
<rect fill="red" height="0" stroke="black" width="5.7777777777777715" x="156" y="0"/>
<rect fill="red" height="0.13396375098502758" stroke="black" width="5.7777777777778" x="161.77777777777777" y="-0.13396375098502758"/>
<rect fill="red" height="7.23404255319149" stroke="black" width="5.7777777777777715" x="167.55555555555557" y="-7.23404255319149"/>
<rect fill="red" height="0" stroke="black" width="5.7777777777778" x="173.33333333333334" y="0"/>
<rect fill="red" height="27.06067769897557" stroke="black" width="5.777777777777743" x="179.11111111111114" y="-27.06067769897557"/>
<rect fill="red" height="22.10401891252955" stroke="black" width="5.7777777777777715" x="184.88888888888889" y="-22.10401891252955"/>
<rect fill="red" height="0" stroke="black" width="5.7777777777777715" x="190.66666666666666" y="0"/>
<rect fill="red" height="0" stroke="black" width="5.7777777777777715" x="196.44444444444443" y="0"/>
<rect fill="red" height="0" stroke="black" width="5.7777777777778" x="202.2222222222222" y="0"/>
<rect fill="red" height="0" stroke="black" width="5.7777777777777715" x="208" y="0"/>
<rect fill="red" height="0" stroke="black" width="5.7777777777778" x="213.77777777777777" y="0"/>
<rect fill="red" height="0" stroke="black" width="5.7777777777777715" x="219.55555555555557" y="0"/>
<rect fill="red" height="4.0189125295508275" stroke="black" width="5.777777777777743" x="225.33333333333334" y="-4.0189125295508275"/>
<rect fill="red" height="11.11899133175729" stroke="black" width="5.777777777777828" x="231.1111111111111" y="-11.11899133175729"/>
<rect fill="red" height="9.779353821907014" stroke="black" width="5.777777777777743" x="236.8888888888889" y="-9.779353821907014"/>
<rect fill="red" height="0" stroke="black" width="5.7777777777777715" x="242.66666666666666" y="0"/>
<rect fill="red" height="0" stroke="black" width="5.7777777777777715" x="248.44444444444443" y="0"/>
<rect fill="red" height="0" stroke="black" width="5.7777777777778" x="254.2222222222222" y="0"/>
<rect fill="red" height="0" stroke="black" width="5.7777777777777715" x="260" y="0"/>
<rect fill="red" height="0" stroke="black" width="5.7777777777777715" x="265.77777777777777" y="0"/>
<rect fill="red" height="0" stroke="black" width="5.7777777777777715" x="271.55555555555554" y="0"/>
<rect fill="red" height="0.26792750197005516" stroke="black" width="5.777777777777715" x="277.3333333333333" y="-0.26792750197005516"/>
<rect fill="red" height="1.8754925137903862" stroke="black" width="5.777777777777885" x="283.11111111111103" y="-1.8754925137903862"/>
<rect fill="red" height="3.8849487785658" stroke="black" width="5.7777777777777715" x="288.8888888888889" y="-3.8849487785658"/>
<rect fill="red" height="5.760441292356186" stroke="black" width="5.7777777777777715" x="294.6666666666667" y="-5.760441292356186"/>
<rect fill="red" height="0" stroke="black" width="5.7777777777777715" x="300.44444444444446" y="0"/>
<rect fill="red" height="0" stroke="black" width="5.7777777777777715" x="306.22222222222223" y="0"/>
<rect fill="red" height="0" stroke="black" width="5.777777777777828" x="312" y="0"/>
<rect fill="red" height="0" stroke="black" width="5.777777777777715" x="317.7777777777778" y="0"/>
<rect fill="red" height="0" stroke="black" width="5.7777777777777715" x="323.55555555555554" y="0"/>
<rect fill="red" height="0" stroke="black" width="5.777777777777828" x="329.3333333333333" y="0"/>
<rect fill="red" height="1.3396375098502757" stroke="black" width="5.7777777777777715" x="335.11111111111114" y="-1.3396375098502757"/>
<rect fill="red" height="2.6792750197005515" stroke="black" width="5.7777777777777715" x="340.8888888888889" y="-2.6792750197005515"/>
<rect fill="red" height="0" stroke="black" width="5.7777777777777715" x="346.6666666666667" y="0"/>
<rect fill="red" height="1.3396375098502757" stroke="black" width="5.7777777777777715" x="352.44444444444446" y="-1.3396375098502757"/>
<rect fill="red" height="0" stroke="black" width="5.7777777777777715" x="358.22222222222223" y="0"/>
<rect fill="red" height="0" stroke="black" width="5.7777777777777715" x="364" y="0"/>
<rect fill="red" height="0" stroke="black" width="5.777777777777715" x="369.77777777777777" y="0"/>
<rect fill="red" height="0" stroke="black" width="5.777777777777828" x="375.5555555555555" y="0"/>
<rect fill="red" height="0" stroke="black" width="5.7777777777777715" x="381.3333333333333" y="0"/>
<rect fill="red" height="0" stroke="black" width="5.7777777777777715" x="387.1111111111111" y="0"/>
<rect fill="red" height="0" stroke="black" width="5.777777777777828" x="392.88888888888886" y="0"/>
<rect fill="red" height="0.8037825059101655" stroke="black" width="5.777777777777715" x="398.6666666666667" y="-0.8037825059101655"/>
<rect fill="red" height="1.0717100078802206" stroke="black" width="5.7777777777777715" x="404.4444444444444" y="-1.0717100078802206"/>
<rect fill="red" height="0" stroke="black" width="5.777777777777828" x="410.2222222222222" y="0"/>
<rect fill="red" height="0" stroke="black" width="5.777777777777828" x="416" y="0"/>
<rect fill="red" height="0" stroke="black" width="5.777777777777715" x="421.7777777777778" y="0"/>
<rect fill="red" height="0" stroke="black" width="5.7777777777777715" x="427.55555555555554" y="0"/>
<rect fill="red" height="0" stroke="black" width="5.777777777777828" x="433.3333333333333" y="0"/>
<rect fill="red" height="0" stroke="black" width="5.777777777777715" x="439.11111111111114" y="0"/>
<rect fill="red" height="0" stroke="black" width="5.777777777777828" x="444.88888888888886" y="0"/>
<rect fill="red" height="0.13396375098502758" stroke="black" width="5.7777777777777715" x="450.6666666666667" y="-0.13396375098502758"/>
<rect fill="red" height="0.40189125295508277" stroke="black" width="5.777777777777715" x="456.44444444444446" y="-0.40189125295508277"/>
<rect fill="red" height="0.26792750197005516" stroke="black" width="5.777777777777942" x="462.2222222222222" y="-0.26792750197005516"/>
<rect fill="red" height="0" stroke="black" width="5.777777777777715" x="468.0000000000001" y="0"/>
<rect fill="red" height="0" stroke="black" width="5.777777777777715" x="473.7777777777778" y="0"/>
<rect fill="red" height="0" stroke="black" width="5.7777777777777715" x="479.55555555555554" y="0"/>
<rect fill="red" height="0" stroke="black" width="5.777777777777715" x="485.3333333333333" y="0"/>
<rect fill="red" height="0" stroke="black" width="5.777777777777828" x="491.11111111111103" y="0"/>
<rect fill="red" height="0" stroke="black" width="5.777777777777828" x="496.88888888888886" y="0"/>
<rect fill="red" height="0" stroke="black" width="5.777777777777715" x="502.6666666666667" y="0"/>
<rect fill="red" height="0.26792750197005516" stroke="black" width="5.7777777777777715" x="508.4444444444444" y="-0.26792750197005516"/>
<rect fill="red" height="0.13396375098502758" stroke="black" width="5.777777777777828" x="514.2222222222222" y="-0.13396375098502758"/>
</g>
<g>
<g>
<line stroke="black" stroke-width="1" x1="86.66666666666667" x2="86.66666666666667" y1="0" y2="10"/>
<line stroke="black" stroke-width="1" x1="210.47619047619048" x2="210.47619047619048" y1="0" y2="10"/>
<line stroke="black" stroke-width="1" x1="334.2857142857143" x2="334.2857142857143" y1="0" y2="10"/>
<line stroke="black" stroke-width="1" x1="458.0952380952381" x2="458.0952380952381" y1="0" y2="10"/>
</g>
<line stroke="black" stroke-width="1" x1="0" x2="520" y1="0" y2="0"/>
<g>
<text font-size="12" text-anchor="middle" x="86.66666666666667" y="20">
20
</text>
<text font-size="12" text-anchor="middle" x="210.47619047619048" y="20">
40
</text>
<text font-size="12" text-anchor="middle" x="334.2857142857143" y="20">
60
</text>
<text font-size="12" text-anchor="middle" x="458.0952380952381" y="20">
80
</text>
</g>
<text font-size="12" text-anchor="middle" x="260" y="30">

</text>
</g>
<g>
<g>
<line stroke="black" stroke-width="1" x1="0" x2="-10" y1="0" y2="0"/>
<line stroke="black" stroke-width="1" x1="0" x2="-10" y1="-66.9818754925138" y2="-66.9818754925138"/>
<line stroke="black" stroke-width="1" x1="0" x2="-10" y1="-133.9637509850276" y2="-133.9637509850276"/>
<line stroke="black" stroke-width="1" x1="0" x2="-10" y1="-200.94562647754137" y2="-200.94562647754137"/>
<line stroke="black" stroke-width="1" x1="0" x2="-10" y1="-267.9275019700552" y2="-267.9275019700552"/>
<line stroke="black" stroke-width="1" x1="0" x2="-10" y1="-334.90937746256895" y2="-334.90937746256895"/>
</g>
<line stroke="black" stroke-width="1" x1="0" x2="0" y1="0" y2="-340"/>
<g>
<text dominant-baseline="middle" font-size="12" text-anchor="end" x="-15" y="0">
0
</text>
<text dominant-baseline="middle" font-size="12" text-anchor="end" x="-15" y="-66.9818754925138">
500
</text>
<text dominant-baseline="middle" font-size="12" text-anchor="end" x="-15" y="-133.9637509850276">
1000
</text>
<text dominant-baseline="middle" font-size="12" text-anchor="end" x="-15" y="-200.94562647754137">
1500
</text>
<text dominant-baseline="middle" font-size="12" text-anchor="end" x="-15" y="-267.9275019700552">
2000
</text>
<text dominant-baseline="middle" font-size="12" text-anchor="end" x="-15" y="-334.90937746256895">
2500
</text>
</g>
<text font-size="12" text-anchor="middle" transform="rotate(-90 -30 -170)" x="-30" y="-170">

</text>
</g>
</g>
</svg>