<svg viewBox="0 0 600 400" xmlns="http://www.w3.org/2000/svg">
<g transform="translate(48, 364)">
<g>
<rect fill="red" height="4.644435516271595" stroke="black" width="5.909090909090908" x="0" y="-4.644435516271595"/>
<rect fill="red" height="100.67496986741664" stroke="black" width="5.909090909090908" x="5.909090909090908" y="-100.67496986741664"/>
<rect fill="red" height="339.59019686621133" stroke="black" width="5.9090909090909065" x="11.818181818181817" y="-339.59019686621133"/>
<rect fill="red" height="340" stroke="black" width="5.90909090909091" x="17.727272727272723" y="-340"/>
<rect fill="red" height="172.52711932503013" stroke="black" width="5.909090909090921" x="23.636363636363633" y="-172.52711932503013"/>
<rect fill="red" height="0" stroke="black" width="5.909090909090892" x="29.545454545454554" y="0"/>
<rect fill="red" height="0" stroke="black" width="5.909090909090921" x="35.454545454545446" y="0"/>
<rect fill="red" height="0" stroke="black" width="5.9090909090909065" x="41.36363636363637" y="0"/>
<rect fill="red" height="0" stroke="black" width="5.9090909090909065" x="47.27272727272727" y="0"/>
<rect fill="red" height="0" stroke="black" width="5.909090909090914" x="53.18181818181818" y="0"/>
<rect fill="red" height="1.092808356769787" stroke="black" width="5.9090909090909065" x="59.09090909090909" y="-1.092808356769787"/>
<rect fill="red" height="33.19405383688228" stroke="black" width="5.909090909090892" x="65" y="-33.19405383688228"/>
<rect fill="red" height="102.58738449176376" stroke="black" width="5.909090909090949" x="70.90909090909089" y="-102.58738449176376"/>
<rect fill="red" height="100.26516673362796" stroke="black" width="5.909090909090892" x="76.81818181818184" y="-100.26516673362796"/>
<rect fill="red" height="0" stroke="black" width="5.9090909090909065" x="82.72727272727273" y="0"/>
<rect fill="red" height="53.54760948171957" stroke="black" width="5.9090909090909065" x="88.63636363636364" y="-53.54760948171957"/>
<rect fill="red" height="0" stroke="black" width="5.909090909090892" x="94.54545454545455" y="0"/>
<rect fill="red" height="0" stroke="black" width="5.909090909090921" x="100.45454545454544" y="0"/>
<rect fill="red" height="0" stroke="black" width="5.9090909090909065" x="106.36363636363636" y="0"/>
<rect fill="red" height="0" stroke="black" width="5.909090909090921" x="112.27272727272727" y="0"/>
<rect fill="red" height="0" stroke="black" width="5.9090909090909065" x="118.18181818181819" y="0"/>
<rect fill="red" height="0.13660104459622338" stroke="black" width="5.9090909090909065" x="124.0909090909091" y="-0.13660104459622338"/>
<rect fill="red" height="8.46926476496585" stroke="black" width="5.9090909090909065" x="130" y="-8.46926476496585"/>
<rect fill="red" height="30.871836078746483" stroke="black" width="5.9090909090909065" x="135.9090909090909" y="-30.871836078746483"/>
<rect fill="red" height="28.139815186822016" stroke="black" width="5.9090909090909065" x="141.8181818181818" y="-28.139815186822016"/>
<rect fill="red" height="16.9385295299317" stroke="black" width="5.909090909090935" x="147.72727272727272" y="-16.9385295299317"/>
<rect fill="red" height="0" stroke="black" width="5.9090909090909065" x="153.63636363636365" y="0"/>
<rect fill="red" height="0" stroke="black" width="5.9090909090909065" x="159.54545454545456" y="0"/>
<rect fill="red" height="0" stroke="black" width="5.90909090909085" x="165.45454545454547" y="0"/>
<rect fill="red" height="0" stroke="black" width="5.909090909090963" x="171.36363636363632" y="0"/>
<rect fill="red" height="0" stroke="black" width="5.909090909090935" x="177.27272727272728" y="0"/>
<rect fill="red" height="0" stroke="black" width="5.909090909090878" x="183.18181818181822" y="0"/>
<rect fill="red" height="0.40980313378867017" stroke="black" width="5.9090909090909065" x="189.0909090909091" y="-0.40980313378867017"/>
<rect fill="red" height="1.9124146243471274" stroke="black" width="5.909090909090878" x="195" y="-1.9124146243471274"/>
<rect fill="red" height="7.64965849738851" stroke="black" width="5.909090909090935" x="200.90909090909088" y="-7.64965849738851"/>
<rect fill="red" height="9.425472077139414" stroke="black" width="5.9090909090909065" x="206.8181818181818" y="-9.425472077139414"/>
<rect fill="red" height="4.781036560867818" stroke="black" width="5.9090909090909065" x="212.72727272727272" y="-4.781036560867818"/>
<rect fill="red" height="0" stroke="black" width="5.9090909090909065" x="218.63636363636363" y="0"/>
<rect fill="red" height="0" stroke="black" width="5.909090909090935" x="224.54545454545453" y="0"/>
<rect fill="red" height="0" stroke="black" width="5.9090909090909065" x="230.45454545454547" y="0"/>
<rect fill="red" height="0" stroke="black" width="5.9090909090909065" x="236.36363636363637" y="0"/>
<rect fill="red" height="0" stroke="black" width="5.9090909090909065" x="242.27272727272728" y="0"/>
<rect fill="red" height="0" stroke="black" width="5.909090909090935" x="248.1818181818182" y="0"/>
<rect fill="red" height="0.6830052229811169" stroke="black" width="5.909090909090878" x="254.09090909090912" y="-0.6830052229811169"/>
<rect fill="red" height="0" stroke="black" width="5.909090909090878" x="260" y="0"/>
<rect fill="red" height="2.458818802732021" stroke="black" width="5.909090909090935" x="265.9090909090909" y="-2.458818802732021"/>
<rect fill="red" height="1.6392125351546807" stroke="black" width="5.909090909090878" x="271.8181818181818" y="-1.6392125351546807"/>
<rect fill="red" height="1.092808356769787" stroke="black" width="5.909090909090935" x="277.7272727272727" y="-1.092808356769787"/>
<rect fill="red" height="0" stroke="black" width="5.909090909090935" x="283.6363636363636" y="0"/>
<rect fill="red" height="0" stroke="black" width="5.909090909090878" x="289.54545454545456" y="0"/>
<rect fill="red" height="0" stroke="black" width="5.909090909090935" x="295.45454545454544" y="0"/>
<rect fill="red" height="0" stroke="black" width="5.909090909090935" x="301.3636363636364" y="0"/>
<rect fill="red" height="0" stroke="black" width="5.909090909090878" x="307.2727272727273" y="0"/>
<rect fill="red" height="0" stroke="black" width="5.909090909090935" x="313.1818181818182" y="0"/>
<rect fill="red" height="0.13660104459622338" stroke="black" width="5.909090909090878" x="319.0909090909091" y="-0.13660104459622338"/>
<rect fill="red" height="0.6830052229811169" stroke="black" width="5.909090909090878" x="325" y="-0.6830052229811169"/>
<rect fill="red" height="0.6830052229811169" stroke="black" width="5.909090909090935" x="330.9090909090909" y="-0.6830052229811169"/>
<rect fill="red" height="0.40980313378867017" stroke="black" width="5.909090909090878" x="336.8181818181818" y="-0.40980313378867017"/>
<rect fill="red" height="0" stroke="black" width="5.909090909090935" x="342.7272727272727" y="0"/>
<rect fill="red" height="0" stroke="black" width="5.909090909090935" x="348.6363636363636" y="0"/>
<rect fill="red" height="0" stroke="black" width="5.909090909090878" x="354.54545454545456" y="0"/>
<rect fill="red" height="0" stroke="black" width="5.909090909090935" x="360.45454545454544" y="0"/>
<rect fill="red" height="0" stroke="black" width="5.909090909090992" x="366.3636363636364" y="0"/>
<rect fill="red" height="0" stroke="black" width="5.909090909090821" x="372.27272727272737" y="0"/>
<rect fill="red" height="0" stroke="black" width="5.909090909090878" x="378.1818181818182" y="0"/>
<rect fill="red" height="0.5464041783848935" stroke="black" width="5.909090909090935" x="384.09090909090907" y="-0.5464041783848935"/>
<rect fill="red" height="0.40980313378867017" stroke="black" width="5.909090909090935" x="390" y="-0.40980313378867017"/>
<rect fill="red" height="0" stroke="black" width="5.909090909090821" x="395.90909090909093" y="0"/>
<rect fill="red" height="0.13660104459622338" stroke="black" width="5.909090909090992" x="401.81818181818176" y="-0.13660104459622338"/>
<rect fill="red" height="0" stroke="black" width="5.909090909090878" x="407.72727272727275" y="0"/>
<rect fill="red" height="0" stroke="black" width="5.909090909090935" x="413.6363636363636" y="0"/>
<rect fill="red" height="0" stroke="black" width="5.909090909090878" x="419.54545454545456" y="0"/>
<rect fill="red" height="0" stroke="black" width="5.909090909090935" x="425.45454545454544" y="0"/>
<rect fill="red" height="0" stroke="black" width="5.909090909090878" x="431.3636363636364" y="0"/>
<rect fill="red" height="0" stroke="black" width="5.909090909090992" x="437.27272727272725" y="0"/>
<rect fill="red" height="0" stroke="black" width="5.909090909090821" x="443.18181818181824" y="0"/>
<rect fill="red" height="0" stroke="black" width="5.909090909090935" x="449.09090909090907" y="0"/>
<rect fill="red" height="0" stroke="black" width="5.909090909090935" x="455" y="0"/>
<rect fill="red" height="0" stroke="black" width="5.909090909090821" x="460.90909090909093" y="0"/>
<rect fill="red" height="0" stroke="black" width="5.909090909090992" x="466.81818181818176" y="0"/>
<rect fill="red" height="0" stroke="black" width="5.909090909090878" x="472.72727272727275" y="0"/>
<rect fill="red" height="0" stroke="black" width="5.909090909090935" x="478.6363636363636" y="0"/>
<rect fill="red" height="0" stroke="black" width="5.909090909090878" x="484.54545454545456" y="0"/>
<rect fill="red" height="0" stroke="black" width="5.909090909090935" x="490.45454545454544" y="0"/>
<rect fill="red" height="0" stroke="black" width="5.909090909090878" x="496.3636363636364" y="0"/>
<rect fill="red" height="0" stroke="black" width="5.909090909090992" x="502.27272727272725" y="0"/>
<rect fill="red" height="0" stroke="black" width="5.909090909090878" x="508.18181818181824" y="0"/>
<rect fill="red" height="0.13660104459622338" stroke="black" width="5.909090909090878" x="514.0909090909091" y="-0.13660104459622338"/>
</g>
<g>
<g>
<line stroke="black" stroke-width="1" x1="88.78048780487805" x2="88.78048780487805" y1="0" y2="10"/>
<line stroke="black" stroke-width="1" x1="215.609756097561" x2="215.609756097561" y1="0" y2="10"/>
<line stroke="black" stroke-width="1" x1="342.4390243902439" x2="342.4390243902439" y1="0" y2="10"/>
<line stroke="black" stroke-width="1" x1="469.2682926829268" x2="469.2682926829268" y1="0" y2="10"/>
</g>
<line stroke="black" stroke-width="1" x1="0" x2="520" y1="0" y2="0"/>
<g>
<text font-size="12" text-anchor="middle" x="88.78048780487805" y="20">
20
</text>
<text font-size="12" text-anchor="middle" x="215.609756097561" y="20">
40
</text>
<text font-size="12" text-anchor="middle" x="342.4390243902439" y="20">
60
</text>
<text font-size="12" text-anchor="middle" x="469.2682926829268" y="20">
80
</text>
</g>
<text font-size="12" text-anchor="middle" x="260" y="30">

</text>
</g>
<g>
<g>
<line stroke="black" stroke-width="1" x1="0" x2="-10" y1="0" y2="0"/>
<line stroke="black" stroke-width="1" x1="0" x2="-10" y1="-68.30052229811169" y2="-68.30052229811169"/>
<line stroke="black" stroke-width="1" x1="0" x2="-10" y1="-136.60104459622337" y2="-136.60104459622337"/>
<line stroke="black" stroke-width="1" x1="0" x2="-10" y1="-204.90156689433508" y2="-204.90156689433508"/>
<line stroke="black" stroke-width="1" x1="0" x2="-10" y1="-273.20208919244675" y2="-273.20208919244675"/>
</g>
<line stroke="black" stroke-width="1" x1="0" x2="0" y1="0" y2="-340"/>
<g>
<text dominant-baseline="middle" font-size="12" text-anchor="end" x="-15" y="0">
0
</text>
<text dominant-baseline="middle" font-size="12" text-anchor="end" x="-15" y="-68.30052229811169">
500
</text>
<text dominant-baseline="middle" font-size="12" text-anchor="end" x="-15" y="-136.60104459622337">
1000
</text>
<text dominant-baseline="middle" font-size="12" text-anchor="end" x="-15" y="-204.90156689433508">
1500
</text>
<text dominant-baseline="middle" font-size="12" text-anchor="end" x="-15" y="-273.20208919244675">
2000
</text>
</g>
<text font-size="12" text-anchor="middle" transform="rotate(-90 -30 -170)" x="-30" y="-170">

</text>
</g>
</g>
</svg>