<svg viewBox="0 0 600 400" xmlns="http://www.w3.org/2000/svg">
<g transform="translate(48, 364)">
<g>
<rect fill="red" height="3.763837638376384" stroke="black" width="7.323943661971832" x="0" y="-3.763837638376384"/>
<rect fill="red" height="87.82287822878229" stroke="black" width="7.323943661971832" x="7.323943661971832" y="-87.82287822878229"/>
<rect fill="red" height="340" stroke="black" width="7.323943661971825" x="14.647887323943664" y="-340"/>
<rect fill="red" height="318.67158671586714" stroke="black" width="7.323943661971839" x="21.97183098591549" y="-318.67158671586714"/>
<rect fill="red" height="0" stroke="black" width="7.323943661971839" x="29.295774647887328" y="0"/>
<rect fill="red" height="0" stroke="black" width="7.323943661971811" x="36.61971830985917" y="0"/>
<rect fill="red" height="0" stroke="black" width="7.323943661971839" x="43.94366197183098" y="0"/>
<rect fill="red" height="0" stroke="black" width="7.323943661971839" x="51.267605633802816" y="0"/>
<rect fill="red" height="0" stroke="black" width="7.323943661971825" x="58.591549295774655" y="0"/>
<rect fill="red" height="1.2546125461254614" stroke="black" width="7.323943661971839" x="65.91549295774648" y="-1.2546125461254614"/>
<rect fill="red" height="43.91143911439114" stroke="black" width="7.323943661971796" x="73.23943661971832" y="-43.91143911439114"/>
<rect fill="red" height="0" stroke="black" width="7.323943661971839" x="80.56338028169012" y="0"/>
<rect fill="red" height="134.24354243542436" stroke="black" width="7.323943661971839" x="87.88732394366195" y="-134.24354243542436"/>
<rect fill="red" height="121.69741697416974" stroke="black" width="7.323943661971839" x="95.2112676056338" y="-121.69741697416974"/>
<rect fill="red" height="0" stroke="black" width="7.323943661971839" x="102.53521126760563" y="0"/>
<rect fill="red" height="0" stroke="black" width="7.323943661971839" x="109.85915492957747" y="0"/>
<rect fill="red" height="0" stroke="black" width="7.323943661971811" x="117.18309859154931" y="0"/>
<rect fill="red" height="0" stroke="black" width="7.323943661971839" x="124.50704225352112" y="0"/>
<rect fill="red" height="0" stroke="black" width="7.323943661971811" x="131.83098591549296" y="0"/>
<rect fill="red" height="0" stroke="black" width="7.323943661971867" x="139.15492957746477" y="0"/>
<rect fill="red" height="13.800738007380074" stroke="black" width="7.323943661971811" x="146.47887323943664" y="-13.800738007380074"/>
<rect fill="red" height="63.98523985239852" stroke="black" width="7.323943661971811" x="153.80281690140845" y="-63.98523985239852"/>
<rect fill="red" height="50.18450184501845" stroke="black" width="7.323943661971867" x="161.12676056338026" y="-50.18450184501845"/>
<rect fill="red" height="0" stroke="black" width="7.323943661971811" x="168.45070422535213" y="0"/>
<rect fill="red" height="0" stroke="black" width="7.323943661971811" x="175.77464788732394" y="0"/>
<rect fill="red" height="0" stroke="black" width="7.323943661971867" x="183.09859154929575" y="0"/>
<rect fill="red" height="0" stroke="black" width="7.323943661971811" x="190.42253521126761" y="0"/>
<rect fill="red" height="0" stroke="black" width="7.323943661971839" x="197.74647887323943" y="0"/>
<rect fill="red" height="0" stroke="black" width="7.323943661971839" x="205.07042253521126" y="0"/>
<rect fill="red" height="0" stroke="black" width="7.323943661971839" x="212.3943661971831" y="0"/>
<rect fill="red" height="11.291512915129152" stroke="black" width="7.323943661971839" x="219.71830985915494" y="-11.291512915129152"/>
<rect fill="red" height="18.819188191881917" stroke="black" width="7.323943661971839" x="227.04225352112678" y="-18.819188191881917"/>
<rect fill="red" height="15.055350553505535" stroke="black" width="7.323943661971839" x="234.36619718309862" y="-15.055350553505535"/>
<rect fill="red" height="0" stroke="black" width="7.323943661971782" x="241.69014084507046" y="0"/>
<rect fill="red" height="0" stroke="black" width="7.323943661971839" x="249.01408450704224" y="0"/>
<rect fill="red" height="0" stroke="black" width="7.323943661971839" x="256.3380281690141" y="0"/>
<rect fill="red" height="0" stroke="black" width="7.323943661971839" x="263.6619718309859" y="0"/>
<rect fill="red" height="0" stroke="black" width="7.323943661971782" x="270.98591549295776" y="0"/>
<rect fill="red" height="0" stroke="black" width="7.323943661971896" x="278.30985915492954" y="0"/>
<rect fill="red" height="0" stroke="black" width="7.323943661971839" x="285.63380281690144" y="0"/>
<rect fill="red" height="0" stroke="black" width="7.323943661971782" x="292.9577464788733" y="0"/>
<rect fill="red" height="8.782287822878228" stroke="black" width="7.323943661971839" x="300.28169014084506" y="-8.782287822878228"/>
<rect fill="red" height="6.273062730627307" stroke="black" width="7.323943661971839" x="307.6056338028169" y="-6.273062730627307"/>
<rect fill="red" height="0" stroke="black" width="7.323943661971782" x="314.92957746478874" y="0"/>
<rect fill="red" height="0" stroke="black" width="7.323943661971896" x="322.2535211267605" y="0"/>
<rect fill="red" height="0" stroke="black" width="7.323943661971839" x="329.5774647887324" y="0"/>
<rect fill="red" height="0" stroke="black" width="7.323943661971782" x="336.90140845070425" y="0"/>
<rect fill="red" height="0" stroke="black" width="7.323943661971839" x="344.22535211267603" y="0"/>
<rect fill="red" height="0" stroke="black" width="7.323943661971839" x="351.5492957746479" y="0"/>
<rect fill="red" height="0" stroke="black" width="7.323943661971782" x="358.8732394366197" y="0"/>
<rect fill="red" height="1.2546125461254614" stroke="black" width="7.323943661971896" x="366.1971830985915" y="-1.2546125461254614"/>
<rect fill="red" height="2.5092250922509227" stroke="black" width="7.323943661971839" x="373.5211267605634" y="-2.5092250922509227"/>
<rect fill="red" height="2.5092250922509227" stroke="black" width="7.323943661971839" x="380.84507042253523" y="-2.5092250922509227"/>
<rect fill="red" height="0" stroke="black" width="7.323943661971782" x="388.16901408450707" y="0"/>
<rect fill="red" height="0" stroke="black" width="7.323943661971839" x="395.49295774647885" y="0"/>
<rect fill="red" height="0" stroke="black" width="7.323943661971839" x="402.8169014084507" y="0"/>
<rect fill="red" height="0" stroke="black" width="7.323943661971839" x="410.14084507042253" y="0"/>
<rect fill="red" height="0" stroke="black" width="7.323943661971839" x="417.46478873239437" y="0"/>
<rect fill="red" height="0" stroke="black" width="7.323943661971839" x="424.7887323943662" y="0"/>
<rect fill="red" height="0" stroke="black" width="7.323943661971782" x="432.11267605633805" y="0"/>
<rect fill="red" height="1.2546125461254614" stroke="black" width="7.323943661971839" x="439.4366197183098" y="-1.2546125461254614"/>
<rect fill="red" height="5.018450184501845" stroke="black" width="7.323943661971839" x="446.76056338028167" y="-5.018450184501845"/>
<rect fill="red" height="0" stroke="black" width="7.323943661971839" x="454.0845070422535" y="0"/>
<rect fill="red" height="0" stroke="black" width="7.323943661971896" x="461.40845070422534" y="0"/>
<rect fill="red" height="0" stroke="black" width="7.323943661971725" x="468.73239436619724" y="0"/>
<rect fill="red" height="0" stroke="black" width="7.323943661971953" x="476.05633802816897" y="0"/>
<rect fill="red" height="0" stroke="black" width="7.323943661971725" x="483.3802816901409" y="0"/>
<rect fill="red" height="0" stroke="black" width="7.323943661971839" x="490.70422535211264" y="0"/>
<rect fill="red" height="0" stroke="black" width="7.323943661971782" x="498.0281690140845" y="0"/>
<rect fill="red" height="0" stroke="black" width="7.323943661971896" x="505.35211267605627" y="0"/>
<rect fill="red" height="1.2546125461254614" stroke="black" width="7.323943661971839" x="512.6760563380282" y="-1.2546125461254614"/>
</g>
<g>
<g>
<line stroke="black" stroke-width="1" x1="112" x2="112" y1="0" y2="10"/>
<line stroke="black" stroke-width="1" x1="272" x2="272" y1="0" y2="10"/>
<line stroke="black" stroke-width="1" x1="432" x2="432" y1="0" y2="10"/>
</g>
<line stroke="black" stroke-width="1" x1="0" x2="520" y1="0" y2="0"/>
<g>
<text font-size="12" text-anchor="middle" x="112" y="20">
20
</text>
<text font-size="12" text-anchor="middle" x="272" y="20">
40
</text>
<text font-size="12" text-anchor="middle" x="432" y="20">
60
</text>
</g>
<text font-size="12" text-anchor="middle" x="260" y="30">

</text>
</g>
<g>
<g>
<line stroke="black" stroke-width="1" x1="0" x2="-10" y1="0" y2="0"/>
<line stroke="black" stroke-width="1" x1="0" x2="-10" y1="-62.730627306273064" y2="-62.730627306273064"/>
<line stroke="black" stroke-width="1" x1="0" x2="-10" y1="-125.46125461254613" y2="-125.46125461254613"/>
<line stroke="black" stroke-width="1" x1="0" x2="-10" y1="-188.19188191881918" y2="-188.19188191881918"/>
<line stroke="black" stroke-width="1" x1="0" x2="-10" y1="-250.92250922509226" y2="-250.92250922509226"/>
<line stroke="black" stroke-width="1" x1="0" x2="-10" y1="-313.6531365313653" y2="-313.6531365313653"/>
</g>
<line stroke="black" stroke-width="1" x1="0" x2="0" y1="0" y2="-340"/>
<g>
<text dominant-baseline="middle" font-size="12" text-anchor="end" x="-15" y="0">
0
</text>
<text dominant-baseline="middle" font-size="12" text-anchor="end" x="-15" y="-62.730627306273064">
50
</text>
<text dominant-baseline="middle" font-size="12" text-anchor="end" x="-15" y="-125.46125461254613">
100
</text>
<text dominant-baseline="middle" font-size="12" text-anchor="end" x="-15" y="-188.19188191881918">
150
</text>
<text dominant-baseline="middle" font-size="12" text-anchor="end" x="-15" y="-250.92250922509226">
200
</text>
<text dominant-baseline="middle" font-size="12" text-anchor="end" x="-15" y="-313.6531365313653">
250
</text>
</g>
<text font-size="12" text-anchor="middle" transform="rotate(-90 -30 -170)" x="-30" y="-170">

</text>
</g>
</g>
</svg>