<svg viewBox="0 0 600 400" xmlns="http://www.w3.org/2000/svg">
<g transform="translate(48, 364)">
<g>
<rect fill="red" height="340" stroke="black" width="40" x="0" y="-340"/>
<rect fill="red" height="166.04651162790697" stroke="black" width="40" x="40" y="-166.04651162790697"/>
<rect fill="red" height="94.88372093023256" stroke="black" width="40" x="80" y="-94.88372093023256"/>
<rect fill="red" height="63.25581395348837" stroke="black" width="40" x="120" y="-63.25581395348837"/>
<rect fill="red" height="39.53488372093023" stroke="black" width="40.00000000000003" x="160" y="-39.53488372093023"/>
<rect fill="red" height="31.627906976744185" stroke="black" width="39.99999999999997" x="200.00000000000003" y="-31.627906976744185"/>
<rect fill="red" height="7.906976744186046" stroke="black" width="40" x="240" y="-7.906976744186046"/>
<rect fill="red" height="7.906976744186046" stroke="black" width="40" x="280" y="-7.906976744186046"/>
<rect fill="red" height="15.813953488372093" stroke="black" width="39.99999999999994" x="320" y="-15.813953488372093"/>
<rect fill="red" height="7.906976744186046" stroke="black" width="40.000000000000114" x="359.99999999999994" y="-7.906976744186046"/>
<rect fill="red" height="0" stroke="black" width="39.99999999999994" x="400.00000000000006" y="0"/>
<rect fill="red" height="0" stroke="black" width="40" x="440" y="0"/>
<rect fill="red" height="7.906976744186046" stroke="black" width="40" x="480" y="-7.906976744186046"/>
</g>
<g>
<g>
<line stroke="black" stroke-width="1" x1="43.333333333333336" x2="43.333333333333336" y1="0" y2="10"/>
<line stroke="black" stroke-width="1" x1="130" x2="130" y1="0" y2="10"/>
<line stroke="black" stroke-width="1" x1="216.66666666666666" x2="216.66666666666666" y1="0" y2="10"/>
<line stroke="black" stroke-width="1" x1="303.3333333333333" x2="303.3333333333333" y1="0" y2="10"/>
<line stroke="black" stroke-width="1" x1="390" x2="390" y1="0" y2="10"/>
<line stroke="black" stroke-width="1" x1="476.6666666666667" x2="476.6666666666667" y1="0" y2="10"/>
</g>
<line stroke="black" stroke-width="1" x1="0" x2="520" y1="0" y2="0"/>
<g>
<text font-size="12" text-anchor="middle" x="43.333333333333336" y="20">
2
</text>
<text font-size="12" text-anchor="middle" x="130" y="20">
4
</text>
<text font-size="12" text-anchor="middle" x="216.66666666666666" y="20">
6
</text>
<text font-size="12" text-anchor="middle" x="303.3333333333333" y="20">
8
</text>
<text font-size="12" text-anchor="middle" x="390" y="20">
10
</text>
<text font-size="12" text-anchor="middle" x="476.6666666666667" y="20">
12
</text>
</g>
<text font-size="12" text-anchor="middle" x="260" y="30">

</text>
</g>
<g>
<g>
<line stroke="black" stroke-width="1" x1="0" x2="-10" y1="0" y2="0"/>
<line stroke="black" stroke-width="1" x1="0" x2="-10" y1="-79.06976744186046" y2="-79.06976744186046"/>
<line stroke="black" stroke-width="1" x1="0" x2="-10" y1="-158.13953488372093" y2="-158.13953488372093"/>
<line stroke="black" stroke-width="1" x1="0" x2="-10" y1="-237.2093023255814" y2="-237.2093023255814"/>
<line stroke="black" stroke-width="1" x1="0" x2="-10" y1="-316.27906976744185" y2="-316.27906976744185"/>
</g>
<line stroke="black" stroke-width="1" x1="0" x2="0" y1="0" y2="-340"/>
<g>
<text dominant-baseline="middle" font-size="12" text-anchor="end" x="-15" y="0">
0
</text>
<text dominant-baseline="middle" font-size="12" text-anchor="end" x="-15" y="-79.06976744186046">
10
</text>
<text dominant-baseline="middle" font-size="12" text-anchor="end" x="-15" y="-158.13953488372093">
20
</text>
<text dominant-baseline="middle" font-size="12" text-anchor="end" x="-15" y="-237.2093023255814">
30
</text>
<text dominant-baseline="middle" font-size="12" text-anchor="end" x="-15" y="-316.27906976744185">
40
</text>
</g>
<text font-size="12" text-anchor="middle" transform="rotate(-90 -30 -170)" x="-30" y="-170">

</text>
</g>
</g>
</svg>