<svg viewBox="0 0 600 400" xmlns="http://www.w3.org/2000/svg">
<g transform="translate(48, 364)">
<g>
<rect fill="red" height="11.521438450899032" stroke="black" width="8.66666666666667" x="0" y="-11.521438450899032"/>
<rect fill="red" height="151.42461964038728" stroke="black" width="8.66666666666667" x="8.66666666666667" y="-151.42461964038728"/>
<rect fill="red" height="340" stroke="black" width="8.666666666666668" x="17.33333333333334" y="-340"/>
<rect fill="red" height="237.83540802213003" stroke="black" width="8.666666666666657" x="26.000000000000007" y="-237.83540802213003"/>
<rect fill="red" height="118.15352697095436" stroke="black" width="8.666666666666664" x="34.666666666666664" y="-118.15352697095436"/>
<rect fill="red" height="49.37759336099585" stroke="black" width="8.666666666666686" x="43.33333333333333" y="-49.37759336099585"/>
<rect fill="red" height="0" stroke="black" width="8.666666666666657" x="52.000000000000014" y="0"/>
<rect fill="red" height="0" stroke="black" width="8.666666666666657" x="60.66666666666667" y="0"/>
<rect fill="red" height="0.11756569847856155" stroke="black" width="8.666666666666671" x="69.33333333333333" y="-0.11756569847856155"/>
<rect fill="red" height="3.409405255878285" stroke="black" width="8.666666666666657" x="78" y="-3.409405255878285"/>
<rect fill="red" height="35.26970954356847" stroke="black" width="8.666666666666671" x="86.66666666666666" y="-35.26970954356847"/>
<rect fill="red" height="74.41908713692946" stroke="black" width="8.666666666666686" x="95.33333333333333" y="-74.41908713692946"/>
<rect fill="red" height="56.78423236514523" stroke="black" width="8.666666666666643" x="104.00000000000001" y="-56.78423236514523"/>
<rect fill="red" height="25.394190871369293" stroke="black" width="8.666666666666686" x="112.66666666666666" y="-25.394190871369293"/>
<rect fill="red" height="13.872752420470263" stroke="black" width="8.666666666666657" x="121.33333333333334" y="-13.872752420470263"/>
<rect fill="red" height="0" stroke="black" width="8.666666666666657" x="130" y="0"/>
<rect fill="red" height="0" stroke="black" width="8.666666666666657" x="138.66666666666666" y="0"/>
<rect fill="red" height="0" stroke="black" width="8.666666666666686" x="147.33333333333331" y="0"/>
<rect fill="red" height="0" stroke="black" width="8.666666666666686" x="156" y="0"/>
<rect fill="red" height="0.5878284923928078" stroke="black" width="8.666666666666629" x="164.66666666666669" y="-0.5878284923928078"/>
<rect fill="red" height="6.81881051175657" stroke="black" width="8.666666666666657" x="173.33333333333331" y="-6.81881051175657"/>
<rect fill="red" height="18.22268326417704" stroke="black" width="8.666666666666686" x="181.99999999999997" y="-18.22268326417704"/>
<rect fill="red" height="12.697095435684647" stroke="black" width="8.666666666666686" x="190.66666666666666" y="-12.697095435684647"/>
<rect fill="red" height="5.525587828492393" stroke="black" width="8.666666666666686" x="199.33333333333334" y="-5.525587828492393"/>
<rect fill="red" height="2.586445366528354" stroke="black" width="8.666666666666657" x="208.00000000000003" y="-2.586445366528354"/>
<rect fill="red" height="0" stroke="black" width="8.666666666666629" x="216.66666666666669" y="0"/>
<rect fill="red" height="0" stroke="black" width="8.666666666666686" x="225.33333333333331" y="0"/>
<rect fill="red" height="0" stroke="black" width="8.666666666666686" x="234" y="0"/>
<rect fill="red" height="0.11756569847856155" stroke="black" width="8.666666666666629" x="242.66666666666669" y="-0.11756569847856155"/>
<rect fill="red" height="1.4107883817427387" stroke="black" width="8.666666666666686" x="251.33333333333331" y="-1.4107883817427387"/>
<rect fill="red" height="0" stroke="black" width="8.666666666666686" x="260" y="0"/>
<rect fill="red" height="3.5269709543568464" stroke="black" width="8.666666666666629" x="268.6666666666667" y="-3.5269709543568464"/>
<rect fill="red" height="2.8215767634854774" stroke="black" width="8.666666666666742" x="277.3333333333333" y="-2.8215767634854774"/>
<rect fill="red" height="1.058091286307054" stroke="black" width="8.666666666666572" x="286.00000000000006" y="-1.058091286307054"/>
<rect fill="red" height="0.8229598893499308" stroke="black" width="8.666666666666742" x="294.66666666666663" y="-0.8229598893499308"/>
<rect fill="red" height="0" stroke="black" width="8.666666666666629" x="303.33333333333337" y="0"/>
<rect fill="red" height="0" stroke="black" width="8.666666666666629" x="312" y="0"/>
<rect fill="red" height="0" stroke="black" width="8.666666666666742" x="320.66666666666663" y="0"/>
<rect fill="red" height="0" stroke="black" width="8.666666666666629" x="329.33333333333337" y="0"/>
<rect fill="red" height="0.11756569847856155" stroke="black" width="8.666666666666629" x="338" y="-0.11756569847856155"/>
<rect fill="red" height="0.7053941908713693" stroke="black" width="8.666666666666742" x="346.66666666666663" y="-0.7053941908713693"/>
<rect fill="red" height="0.35269709543568467" stroke="black" width="8.666666666666572" x="355.33333333333337" y="-0.35269709543568467"/>
<rect fill="red" height="0.2351313969571231" stroke="black" width="8.666666666666686" x="363.99999999999994" y="-0.2351313969571231"/>
<rect fill="red" height="0.11756569847856155" stroke="black" width="8.666666666666686" x="372.66666666666663" y="-0.11756569847856155"/>
<rect fill="red" height="0" stroke="black" width="8.666666666666686" x="381.3333333333333" y="0"/>
<rect fill="red" height="0" stroke="black" width="8.666666666666686" x="390" y="0"/>
<rect fill="red" height="0" stroke="black" width="8.666666666666686" x="398.6666666666667" y="0"/>
<rect fill="red" height="0" stroke="black" width="8.666666666666686" x="407.33333333333337" y="0"/>
<rect fill="red" height="0" stroke="black" width="8.666666666666572" x="416.00000000000006" y="0"/>
<rect fill="red" height="0" stroke="black" width="8.666666666666742" x="424.66666666666663" y="0"/>
<rect fill="red" height="0" stroke="black" width="8.666666666666629" x="433.33333333333337" y="0"/>
<rect fill="red" height="0" stroke="black" width="8.666666666666629" x="442" y="0"/>
<rect fill="red" height="0" stroke="black" width="8.666666666666742" x="450.66666666666663" y="0"/>
<rect fill="red" height="0.11756569847856155" stroke="black" width="8.666666666666629" x="459.33333333333337" y="-0.11756569847856155"/>
<rect fill="red" height="0" stroke="black" width="8.666666666666629" x="468" y="0"/>
<rect fill="red" height="0" stroke="black" width="8.666666666666742" x="476.66666666666663" y="0"/>
<rect fill="red" height="0" stroke="black" width="8.666666666666572" x="485.33333333333337" y="0"/>
<rect fill="red" height="0" stroke="black" width="8.666666666666686" x="493.99999999999994" y="0"/>
<rect fill="red" height="0" stroke="black" width="8.666666666666686" x="502.66666666666663" y="0"/>
<rect fill="red" height="0.11756569847856155" stroke="black" width="8.666666666666686" x="511.3333333333333" y="-0.11756569847856155"/>
</g>
<g>
<g>
<line stroke="black" stroke-width="1" x1="55.714285714285715" x2="55.714285714285715" y1="0" y2="10"/>
<line stroke="black" stroke-width="1" x1="148.57142857142858" x2="148.57142857142858" y1="0" y2="10"/>
<line stroke="black" stroke-width="1" x1="241.42857142857142" x2="241.42857142857142" y1="0" y2="10"/>
<line stroke="black" stroke-width="1" x1="334.2857142857143" x2="334.2857142857143" y1="0" y2="10"/>
<line stroke="black" stroke-width="1" x1="427.14285714285717" x2="427.14285714285717" y1="0" y2="10"/>
<line stroke="black" stroke-width="1" x1="520" x2="520" y1="0" y2="10"/>
</g>
<line stroke="black" stroke-width="1" x1="0" x2="520" y1="0" y2="0"/>
<g>
<text font-size="12" text-anchor="middle" x="55.714285714285715" y="20">
10
</text>
<text font-size="12" text-anchor="middle" x="148.57142857142858" y="20">
20
</text>
<text font-size="12" text-anchor="middle" x="241.42857142857142" y="20">
30
</text>
<text font-size="12" text-anchor="middle" x="334.2857142857143" y="20">
40
</text>
<text font-size="12" text-anchor="middle" x="427.14285714285717" y="20">
50
</text>
<text font-size="12" text-anchor="middle" x="520" y="20">
60
</text>
</g>
<text font-size="12" text-anchor="middle" x="260" y="30">

</text>
</g>
<g>
<g>
<line stroke="black" stroke-width="1" x1="0" x2="-10" y1="0" y2="0"/>
<line stroke="black" stroke-width="1" x1="0" x2="-10" y1="-58.78284923928077" y2="-58.78284923928077"/>
<line stroke="black" stroke-width="1" x1="0" x2="-10" y1="-117.56569847856154" y2="-117.56569847856154"/>
<line stroke="black" stroke-width="1" x1="0" x2="-10" y1="-176.34854771784234" y2="-176.34854771784234"/>
<line stroke="black" stroke-width="1" x1="0" x2="-10" y1="-235.1313969571231" y2="-235.1313969571231"/>
<line stroke="black" stroke-width="1" x1="0" x2="-10" y1="-293.9142461964039" y2="-293.9142461964039"/>
</g>
<line stroke="black" stroke-width="1" x1="0" x2="0" y1="0" y2="-340"/>
<g>
<text dominant-baseline="middle" font-size="12" text-anchor="end" x="-15" y="0">
0
</text>
<text dominant-baseline="middle" font-size="12" text-anchor="end" x="-15" y="-58.78284923928077">
500
</text>
<text dominant-baseline="middle" font-size="12" text-anchor="end" x="-15" y="-117.56569847856154">
1000
</text>
<text dominant-baseline="middle" font-size="12" text-anchor="end" x="-15" y="-176.34854771784234">
1500
</text>
<text dominant-baseline="middle" font-size="12" text-anchor="end" x="-15" y="-235.1313969571231">
2000
</text>
<text dominant-baseline="middle" font-size="12" text-anchor="end" x="-15" y="-293.9142461964039">
2500
</text>
</g>
<text font-size="12" text-anchor="middle" transform="rotate(-90 -30 -170)" x="-30" y="-170">

</text>
</g>
</g>
</svg>