<svg viewBox="0 0 600 400" xmlns="http://www.w3.org/2000/svg">
<g transform="translate(48, 364)">
<g>
<rect fill="red" height="340" stroke="black" width="43.33333333333332" x="0" y="-340"/>
<rect fill="red" height="240.83333333333334" stroke="black" width="43.33333333333332" x="43.33333333333332" y="-240.83333333333334"/>
<rect fill="red" height="148.27777777777777" stroke="black" width="43.33333333333336" x="86.66666666666664" y="-148.27777777777777"/>
<rect fill="red" height="87.83333333333333" stroke="black" width="43.333333333333286" x="130" y="-87.83333333333333"/>
<rect fill="red" height="51" stroke="black" width="43.3333333333334" x="173.3333333333333" y="-51"/>
<rect fill="red" height="27.38888888888889" stroke="black" width="43.333333333333314" x="216.66666666666669" y="-27.38888888888889"/>
<rect fill="red" height="19.833333333333332" stroke="black" width="43.33333333333337" x="260" y="-19.833333333333332"/>
<rect fill="red" height="9.444444444444445" stroke="black" width="43.3333333333332" x="303.33333333333337" y="-9.444444444444445"/>
<rect fill="red" height="12.277777777777779" stroke="black" width="43.33333333333343" x="346.6666666666666" y="-12.277777777777779"/>
<rect fill="red" height="2.8333333333333335" stroke="black" width="43.33333333333337" x="390" y="-2.8333333333333335"/>
<rect fill="red" height="2.8333333333333335" stroke="black" width="43.33333333333326" x="433.33333333333337" y="-2.8333333333333335"/>
<rect fill="red" height="0.9444444444444444" stroke="black" width="43.33333333333337" x="476.66666666666663" y="-0.9444444444444444"/>
</g>
<g>
<g>
<line stroke="black" stroke-width="1" x1="47.27272727272727" x2="47.27272727272727" y1="0" y2="10"/>
<line stroke="black" stroke-width="1" x1="141.8181818181818" x2="141.8181818181818" y1="0" y2="10"/>
<line stroke="black" stroke-width="1" x1="236.36363636363637" x2="236.36363636363637" y1="0" y2="10"/>
<line stroke="black" stroke-width="1" x1="330.90909090909093" x2="330.90909090909093" y1="0" y2="10"/>
<line stroke="black" stroke-width="1" x1="425.45454545454544" x2="425.45454545454544" y1="0" y2="10"/>
<line stroke="black" stroke-width="1" x1="520" x2="520" y1="0" y2="10"/>
</g>
<line stroke="black" stroke-width="1" x1="0" x2="520" y1="0" y2="0"/>
<g>
<text font-size="12" text-anchor="middle" x="47.27272727272727" y="20">
2
</text>
<text font-size="12" text-anchor="middle" x="141.8181818181818" y="20">
4
</text>
<text font-size="12" text-anchor="middle" x="236.36363636363637" y="20">
6
</text>
<text font-size="12" text-anchor="middle" x="330.90909090909093" y="20">
8
</text>
<text font-size="12" text-anchor="middle" x="425.45454545454544" y="20">
10
</text>
<text font-size="12" text-anchor="middle" x="520" y="20">
12
</text>
</g>
<text font-size="12" text-anchor="middle" x="260" y="30">

</text>
</g>
<g>
<g>
<line stroke="black" stroke-width="1" x1="0" x2="-10" y1="0" y2="0"/>
<line stroke="black" stroke-width="1" x1="0" x2="-10" y1="-94.44444444444444" y2="-94.44444444444444"/>
<line stroke="black" stroke-width="1" x1="0" x2="-10" y1="-188.88888888888889" y2="-188.88888888888889"/>
<line stroke="black" stroke-width="1" x1="0" x2="-10" y1="-283.3333333333333" y2="-283.3333333333333"/>
</g>
<line stroke="black" stroke-width="1" x1="0" x2="0" y1="0" y2="-340"/>
<g>
<text dominant-baseline="middle" font-size="12" text-anchor="end" x="-15" y="0">
0
</text>
<text dominant-baseline="middle" font-size="12" text-anchor="end" x="-15" y="-94.44444444444444">
100
</text>
<text dominant-baseline="middle" font-size="12" text-anchor="end" x="-15" y="-188.88888888888889">
200
</text>
<text dominant-baseline="middle" font-size="12" text-anchor="end" x="-15" y="-283.3333333333333">
300
</text>
</g>
<text font-size="12" text-anchor="middle" transform="rotate(-90 -30 -170)" x="-30" y="-170">

</text>
</g>
</g>
</svg>