<svg viewBox="0 0 600 400" xmlns="http://www.w3.org/2000/svg">
<g transform="translate(48, 364)">
<g>
<rect fill="red" height="340" stroke="black" width="26.000000000000007" x="0" y="-340"/>
<rect fill="red" height="218.31001076426264" stroke="black" width="26.000000000000007" x="26.000000000000007" y="-218.31001076426264"/>
<rect fill="red" height="130.016146393972" stroke="black" width="25.999999999999986" x="52.000000000000014" y="-130.016146393972"/>
<rect fill="red" height="87.19590958019376" stroke="black" width="26.00000000000003" x="78" y="-87.19590958019376"/>
<rect fill="red" height="50.96340150699677" stroke="black" width="25.99999999999997" x="104.00000000000003" y="-50.96340150699677"/>
<rect fill="red" height="30.65123789020452" stroke="black" width="26" x="130" y="-30.65123789020452"/>
<rect fill="red" height="20.58665231431647" stroke="black" width="25.99999999999997" x="156" y="-20.58665231431647"/>
<rect fill="red" height="12.443487621097955" stroke="black" width="26.000000000000085" x="181.99999999999997" y="-12.443487621097955"/>
<rect fill="red" height="7.411194833153929" stroke="black" width="25.999999999999943" x="208.00000000000006" y="-7.411194833153929"/>
<rect fill="red" height="7.045209903121636" stroke="black" width="26" x="234" y="-7.045209903121636"/>
<rect fill="red" height="4.025834230355221" stroke="black" width="26.000000000000057" x="260" y="-4.025834230355221"/>
<rect fill="red" height="2.5618945102260495" stroke="black" width="25.999999999999943" x="286.00000000000006" y="-2.5618945102260495"/>
<rect fill="red" height="1.7384284176533908" stroke="black" width="26" x="312" y="-1.7384284176533908"/>
<rect fill="red" height="0.5489773950484392" stroke="black" width="25.999999999999943" x="338" y="-0.5489773950484392"/>
<rect fill="red" height="0.5489773950484392" stroke="black" width="26.000000000000057" x="363.99999999999994" y="-0.5489773950484392"/>
<rect fill="red" height="0.36598493003229277" stroke="black" width="26.000000000000114" x="390" y="-0.36598493003229277"/>
<rect fill="red" height="0.36598493003229277" stroke="black" width="25.999999999999886" x="416.0000000000001" y="-0.36598493003229277"/>
<rect fill="red" height="0" stroke="black" width="26" x="442" y="0"/>
<rect fill="red" height="0" stroke="black" width="26" x="468" y="0"/>
<rect fill="red" height="0.09149623250807319" stroke="black" width="26" x="494" y="-0.09149623250807319"/>
</g>
<g>
<g>
<line stroke="black" stroke-width="1" x1="82.10526315789474" x2="82.10526315789474" y1="0" y2="10"/>
<line stroke="black" stroke-width="1" x1="191.57894736842104" x2="191.57894736842104" y1="0" y2="10"/>
<line stroke="black" stroke-width="1" x1="301.05263157894734" x2="301.05263157894734" y1="0" y2="10"/>
<line stroke="black" stroke-width="1" x1="410.5263157894737" x2="410.5263157894737" y1="0" y2="10"/>
<line stroke="black" stroke-width="1" x1="520" x2="520" y1="0" y2="10"/>
</g>
<line stroke="black" stroke-width="1" x1="0" x2="520" y1="0" y2="0"/>
<g>
<text font-size="12" text-anchor="middle" x="82.10526315789474" y="20">
4
</text>
<text font-size="12" text-anchor="middle" x="191.57894736842104" y="20">
8
</text>
<text font-size="12" text-anchor="middle" x="301.05263157894734" y="20">
12
</text>
<text font-size="12" text-anchor="middle" x="410.5263157894737" y="20">
16
</text>
<text font-size="12" text-anchor="middle" x="520" y="20">
20
</text>
</g>
<text font-size="12" text-anchor="middle" x="260" y="30">

</text>
</g>
<g>
<g>
<line stroke="black" stroke-width="1" x1="0" x2="-10" y1="0" y2="0"/>
<line stroke="black" stroke-width="1" x1="0" x2="-10" y1="-91.49623250807319" y2="-91.49623250807319"/>
<line stroke="black" stroke-width="1" x1="0" x2="-10" y1="-182.99246501614638" y2="-182.99246501614638"/>
<line stroke="black" stroke-width="1" x1="0" x2="-10" y1="-274.4886975242196" y2="-274.4886975242196"/>
</g>
<line stroke="black" stroke-width="1" x1="0" x2="0" y1="0" y2="-340"/>
<g>
<text dominant-baseline="middle" font-size="12" text-anchor="end" x="-15" y="0">
0
</text>
<text dominant-baseline="middle" font-size="12" text-anchor="end" x="-15" y="-91.49623250807319">
1000
</text>
<text dominant-baseline="middle" font-size="12" text-anchor="end" x="-15" y="-182.99246501614638">
2000
</text>
<text dominant-baseline="middle" font-size="12" text-anchor="end" x="-15" y="-274.4886975242196">
3000
</text>
</g>
<text font-size="12" text-anchor="middle" transform="rotate(-90 -30 -170)" x="-30" y="-170">

</text>
</g>
</g>
</svg>