<svg viewBox="0 0 600 400" xmlns="http://www.w3.org/2000/svg">
<g transform="translate(48, 364)">
<g>
<rect fill="red" height="4.232365145228216" stroke="black" width="2.7659574468085095" x="0" y="-4.232365145228216"/>
<rect fill="red" height="105.80912863070539" stroke="black" width="2.7659574468085095" x="2.7659574468085095" y="-105.80912863070539"/>
<rect fill="red" height="340" stroke="black" width="2.765957446808512" x="5.531914893617019" y="-340"/>
<rect fill="red" height="0" stroke="black" width="2.765957446808512" x="8.297872340425531" y="0"/>
<rect fill="red" height="0" stroke="black" width="2.7659574468085086" x="11.063829787234043" y="0"/>
<rect fill="red" height="0" stroke="black" width="2.7659574468085104" x="13.829787234042552" y="0"/>
<rect fill="red" height="0" stroke="black" width="2.765957446808514" x="16.595744680851062" y="0"/>
<rect fill="red" height="0" stroke="black" width="2.7659574468085104" x="19.361702127659576" y="0"/>
<rect fill="red" height="0" stroke="black" width="2.7659574468085033" x="22.127659574468087" y="0"/>
<rect fill="red" height="1.4107883817427387" stroke="black" width="2.765957446808514" x="24.89361702127659" y="-1.4107883817427387"/>
<rect fill="red" height="71.95020746887967" stroke="black" width="2.7659574468085175" x="27.659574468085104" y="-71.95020746887967"/>
<rect fill="red" height="249.70954356846474" stroke="black" width="2.7659574468085033" x="30.42553191489362" y="-249.70954356846474"/>
<rect fill="red" height="0" stroke="black" width="2.765957446808514" x="33.191489361702125" y="0"/>
<rect fill="red" height="0" stroke="black" width="2.765957446808514" x="35.95744680851064" y="0"/>
<rect fill="red" height="0" stroke="black" width="2.765957446808507" x="38.72340425531915" y="0"/>
<rect fill="red" height="0" stroke="black" width="2.765957446808514" x="41.48936170212766" y="0"/>
<rect fill="red" height="0" stroke="black" width="2.765957446808514" x="44.255319148936174" y="0"/>
<rect fill="red" height="0" stroke="black" width="2.7659574468084926" x="47.02127659574469" y="0"/>
<rect fill="red" height="1.4107883817427387" stroke="black" width="2.765957446808521" x="49.78723404255318" y="-1.4107883817427387"/>
<rect fill="red" height="62.0746887966805" stroke="black" width="2.765957446808514" x="52.5531914893617" y="-62.0746887966805"/>
<rect fill="red" height="139.66804979253112" stroke="black" width="2.765957446808507" x="55.319148936170215" y="-139.66804979253112"/>
<rect fill="red" height="0" stroke="black" width="2.765957446808514" x="58.08510638297872" y="0"/>
<rect fill="red" height="0" stroke="black" width="2.765957446808507" x="60.851063829787236" y="0"/>
<rect fill="red" height="0" stroke="black" width="2.765957446808507" x="63.61702127659574" y="0"/>
<rect fill="red" height="0" stroke="black" width="2.765957446808514" x="66.38297872340425" y="0"/>
<rect fill="red" height="0" stroke="black" width="2.765957446808514" x="69.14893617021276" y="0"/>
<rect fill="red" height="0" stroke="black" width="2.765957446808514" x="71.91489361702128" y="0"/>
<rect fill="red" height="0" stroke="black" width="2.765957446808514" x="74.68085106382979" y="0"/>
<rect fill="red" height="2.8215767634854774" stroke="black" width="2.7659574468084855" x="77.4468085106383" y="-2.8215767634854774"/>
<rect fill="red" height="42.32365145228216" stroke="black" width="2.765957446808528" x="80.21276595744679" y="-42.32365145228216"/>
<rect fill="red" height="114.27385892116183" stroke="black" width="2.765957446808514" x="82.97872340425532" y="-114.27385892116183"/>
<rect fill="red" height="0" stroke="black" width="2.765957446808514" x="85.74468085106383" y="0"/>
<rect fill="red" height="0" stroke="black" width="2.765957446808514" x="88.51063829787235" y="0"/>
<rect fill="red" height="0" stroke="black" width="2.765957446808514" x="91.27659574468086" y="0"/>
<rect fill="red" height="0" stroke="black" width="2.7659574468084998" x="94.04255319148938" y="0"/>
<rect fill="red" height="0" stroke="black" width="2.7659574468084855" x="96.80851063829788" y="0"/>
<rect fill="red" height="0" stroke="black" width="2.7659574468085424" x="99.57446808510636" y="0"/>
<rect fill="red" height="0" stroke="black" width="2.7659574468084998" x="102.3404255319149" y="0"/>
<rect fill="red" height="22.57261410788382" stroke="black" width="2.7659574468084855" x="105.1063829787234" y="-22.57261410788382"/>
<rect fill="red" height="63.48547717842324" stroke="black" width="2.7659574468085424" x="107.87234042553189" y="-63.48547717842324"/>
<rect fill="red" height="0" stroke="black" width="2.765957446808514" x="110.63829787234043" y="0"/>
<rect fill="red" height="0" stroke="black" width="2.7659574468084998" x="113.40425531914894" y="0"/>
<rect fill="red" height="0" stroke="black" width="2.765957446808514" x="116.17021276595744" y="0"/>
<rect fill="red" height="0" stroke="black" width="2.765957446808514" x="118.93617021276596" y="0"/>
<rect fill="red" height="0" stroke="black" width="2.7659574468084998" x="121.70212765957447" y="0"/>
<rect fill="red" height="0" stroke="black" width="2.765957446808514" x="124.46808510638297" y="0"/>
<rect fill="red" height="0" stroke="black" width="2.765957446808514" x="127.23404255319149" y="0"/>
<rect fill="red" height="14.107883817427386" stroke="black" width="2.7659574468084998" x="130" y="-14.107883817427386"/>
<rect fill="red" height="53.60995850622407" stroke="black" width="2.765957446808528" x="132.7659574468085" y="-53.60995850622407"/>
<rect fill="red" height="0" stroke="black" width="2.7659574468084998" x="135.53191489361703" y="0"/>
<rect fill="red" height="0" stroke="black" width="2.7659574468084998" x="138.29787234042553" y="0"/>
<rect fill="red" height="0" stroke="black" width="2.765957446808528" x="141.06382978723403" y="0"/>
<rect fill="red" height="0" stroke="black" width="2.7659574468084998" x="143.82978723404256" y="0"/>
<rect fill="red" height="0" stroke="black" width="2.765957446808528" x="146.59574468085106" y="0"/>
<rect fill="red" height="0" stroke="black" width="2.765957446808528" x="149.36170212765958" y="0"/>
<rect fill="red" height="0" stroke="black" width="2.7659574468084713" x="152.1276595744681" y="0"/>
<rect fill="red" height="0" stroke="black" width="2.765957446808528" x="154.89361702127658" y="0"/>
<rect fill="red" height="12.697095435684647" stroke="black" width="2.765957446808528" x="157.6595744680851" y="-12.697095435684647"/>
<rect fill="red" height="29.62655601659751" stroke="black" width="2.7659574468084998" x="160.42553191489364" y="-29.62655601659751"/>
<rect fill="red" height="0" stroke="black" width="2.7659574468084998" x="163.19148936170214" y="0"/>
<rect fill="red" height="0" stroke="black" width="2.7659574468084998" x="165.95744680851064" y="0"/>
<rect fill="red" height="0" stroke="black" width="2.765957446808528" x="168.72340425531914" y="0"/>
<rect fill="red" height="0" stroke="black" width="2.765957446808528" x="171.48936170212767" y="0"/>
<rect fill="red" height="0" stroke="black" width="2.7659574468084998" x="174.2553191489362" y="0"/>
<rect fill="red" height="0" stroke="black" width="2.7659574468084998" x="177.0212765957447" y="0"/>
<rect fill="red" height="1.4107883817427387" stroke="black" width="2.765957446808528" x="179.7872340425532" y="-1.4107883817427387"/>
<rect fill="red" height="2.8215767634854774" stroke="black" width="2.7659574468084713" x="182.55319148936172" y="-2.8215767634854774"/>
<rect fill="red" height="16.929460580912863" stroke="black" width="2.7659574468085566" x="185.3191489361702" y="-16.929460580912863"/>
<rect fill="red" height="0" stroke="black" width="2.765957446808528" x="188.08510638297875" y="0"/>
<rect fill="red" height="0" stroke="black" width="2.7659574468084713" x="190.85106382978728" y="0"/>
<rect fill="red" height="0" stroke="black" width="2.7659574468084998" x="193.61702127659575" y="0"/>
<rect fill="red" height="0" stroke="black" width="2.7659574468084713" x="196.38297872340425" y="0"/>
<rect fill="red" height="0" stroke="black" width="2.765957446808528" x="199.14893617021272" y="0"/>
<rect fill="red" height="0" stroke="black" width="2.7659574468085566" x="201.91489361702125" y="0"/>
<rect fill="red" height="0" stroke="black" width="2.7659574468084713" x="204.6808510638298" y="0"/>
<rect fill="red" height="5.643153526970955" stroke="black" width="2.765957446808528" x="207.44680851063828" y="-5.643153526970955"/>
<rect fill="red" height="14.107883817427386" stroke="black" width="2.7659574468084998" x="210.2127659574468" y="-14.107883817427386"/>
<rect fill="red" height="0" stroke="black" width="2.7659574468084713" x="212.9787234042553" y="0"/>
<rect fill="red" height="0" stroke="black" width="2.7659574468085566" x="215.74468085106378" y="0"/>
<rect fill="red" height="0" stroke="black" width="2.765957446808528" x="218.51063829787233" y="0"/>
<rect fill="red" height="0" stroke="black" width="2.7659574468084713" x="221.27659574468086" y="0"/>
<rect fill="red" height="0" stroke="black" width="2.7659574468085566" x="224.04255319148933" y="0"/>
<rect fill="red" height="0" stroke="black" width="2.765957446808528" x="226.8085106382979" y="0"/>
<rect fill="red" height="0" stroke="black" width="2.7659574468084713" x="229.57446808510642" y="0"/>
<rect fill="red" height="0" stroke="black" width="2.7659574468084998" x="232.3404255319149" y="0"/>
<rect fill="red" height="2.8215767634854774" stroke="black" width="2.765957446808528" x="235.1063829787234" y="-2.8215767634854774"/>
<rect fill="red" height="12.697095435684647" stroke="black" width="2.7659574468084713" x="237.87234042553192" y="-12.697095435684647"/>
<rect fill="red" height="0" stroke="black" width="2.7659574468085566" x="240.6382978723404" y="0"/>
<rect fill="red" height="0" stroke="black" width="2.765957446808528" x="243.40425531914894" y="0"/>
<rect fill="red" height="0" stroke="black" width="2.7659574468084713" x="246.17021276595747" y="0"/>
<rect fill="red" height="0" stroke="black" width="2.7659574468084998" x="248.93617021276594" y="0"/>
<rect fill="red" height="0" stroke="black" width="2.765957446808528" x="251.70212765957444" y="0"/>
<rect fill="red" height="0" stroke="black" width="2.765957446808528" x="254.46808510638297" y="0"/>
<rect fill="red" height="0" stroke="black" width="2.7659574468084998" x="257.2340425531915" y="0"/>
<rect fill="red" height="1.4107883817427387" stroke="black" width="2.7659574468085566" x="260" y="-1.4107883817427387"/>
<rect fill="red" height="7.053941908713693" stroke="black" width="2.765957446808443" x="262.76595744680856" y="-7.053941908713693"/>
<rect fill="red" height="0" stroke="black" width="2.7659574468085566" x="265.531914893617" y="0"/>
<rect fill="red" height="0" stroke="black" width="2.7659574468084998" x="268.29787234042556" y="0"/>
<rect fill="red" height="0" stroke="black" width="2.765957446808443" x="271.06382978723406" y="0"/>
<rect fill="red" height="0" stroke="black" width="2.7659574468085566" x="273.8297872340425" y="0"/>
<rect fill="red" height="0" stroke="black" width="2.7659574468085566" x="276.59574468085106" y="0"/>
<rect fill="red" height="0" stroke="black" width="2.765957446808443" x="279.3617021276596" y="0"/>
<rect fill="red" height="0" stroke="black" width="2.7659574468085566" x="282.12765957446805" y="0"/>
<rect fill="red" height="2.8215767634854774" stroke="black" width="2.7659574468084998" x="284.8936170212766" y="-2.8215767634854774"/>
<rect fill="red" height="2.8215767634854774" stroke="black" width="2.7659574468084998" x="287.6595744680851" y="-2.8215767634854774"/>
<rect fill="red" height="0" stroke="black" width="2.7659574468084998" x="290.4255319148936" y="0"/>
<rect fill="red" height="0" stroke="black" width="2.7659574468085566" x="293.1914893617021" y="0"/>
<rect fill="red" height="0" stroke="black" width="2.7659574468084998" x="295.95744680851067" y="0"/>
<rect fill="red" height="0" stroke="black" width="2.7659574468084998" x="298.72340425531917" y="0"/>
<rect fill="red" height="0" stroke="black" width="2.7659574468085566" x="301.48936170212767" y="0"/>
<rect fill="red" height="0" stroke="black" width="2.765957446808443" x="304.2553191489362" y="0"/>
<rect fill="red" height="0" stroke="black" width="2.7659574468084998" x="307.02127659574467" y="0"/>
<rect fill="red" height="0" stroke="black" width="2.7659574468085566" x="309.78723404255317" y="0"/>
<rect fill="red" height="1.4107883817427387" stroke="black" width="2.7659574468084998" x="312.5531914893617" y="-1.4107883817427387"/>
<rect fill="red" height="1.4107883817427387" stroke="black" width="2.7659574468084998" x="315.3191489361702" y="-1.4107883817427387"/>
<rect fill="red" height="0" stroke="black" width="2.7659574468085566" x="318.0851063829787" y="0"/>
<rect fill="red" height="0" stroke="black" width="2.765957446808443" x="320.8510638297873" y="0"/>
<rect fill="red" height="0" stroke="black" width="2.7659574468085566" x="323.6170212765957" y="0"/>
<rect fill="red" height="0" stroke="black" width="2.765957446808443" x="326.3829787234043" y="0"/>
<rect fill="red" height="0" stroke="black" width="2.7659574468085566" x="329.1489361702127" y="0"/>
<rect fill="red" height="0" stroke="black" width="2.7659574468084998" x="331.9148936170213" y="0"/>
<rect fill="red" height="0" stroke="black" width="2.7659574468084998" x="334.6808510638298" y="0"/>
<rect fill="red" height="0" stroke="black" width="2.7659574468085566" x="337.4468085106383" y="0"/>
<rect fill="red" height="1.4107883817427387" stroke="black" width="2.7659574468084998" x="340.21276595744683" y="-1.4107883817427387"/>
<rect fill="red" height="0" stroke="black" width="2.765957446808443" x="342.97872340425533" y="0"/>
<rect fill="red" height="0" stroke="black" width="2.7659574468086134" x="345.7446808510638" y="0"/>
<rect fill="red" height="0" stroke="black" width="2.765957446808443" x="348.5106382978724" y="0"/>
<rect fill="red" height="0" stroke="black" width="2.7659574468085566" x="351.27659574468083" y="0"/>
<rect fill="red" height="0" stroke="black" width="2.7659574468084998" x="354.0425531914894" y="0"/>
<rect fill="red" height="0" stroke="black" width="2.7659574468084998" x="356.8085106382979" y="0"/>
<rect fill="red" height="0" stroke="black" width="2.7659574468085566" x="359.5744680851064" y="0"/>
<rect fill="red" height="0" stroke="black" width="2.7659574468084998" x="362.34042553191495" y="0"/>
<rect fill="red" height="0" stroke="black" width="2.765957446808443" x="365.10638297872345" y="0"/>
<rect fill="red" height="0" stroke="black" width="2.7659574468084998" x="367.8723404255319" y="0"/>
<rect fill="red" height="0" stroke="black" width="2.7659574468084998" x="370.6382978723404" y="0"/>
<rect fill="red" height="0" stroke="black" width="2.7659574468086134" x="373.4042553191489" y="0"/>
<rect fill="red" height="0" stroke="black" width="2.765957446808443" x="376.1702127659575" y="0"/>
<rect fill="red" height="0" stroke="black" width="2.7659574468086134" x="378.93617021276594" y="0"/>
<rect fill="red" height="0" stroke="black" width="2.765957446808386" x="381.70212765957456" y="0"/>
<rect fill="red" height="0" stroke="black" width="2.7659574468085566" x="384.46808510638294" y="0"/>
<rect fill="red" height="0" stroke="black" width="2.7659574468084998" x="387.2340425531915" y="0"/>
<rect fill="red" height="0" stroke="black" width="2.7659574468084998" x="390" y="0"/>
<rect fill="red" height="1.4107883817427387" stroke="black" width="2.7659574468085566" x="392.7659574468085" y="-1.4107883817427387"/>
<rect fill="red" height="0" stroke="black" width="2.765957446808386" x="395.53191489361706" y="0"/>
<rect fill="red" height="0" stroke="black" width="2.7659574468086134" x="398.29787234042544" y="0"/>
<rect fill="red" height="0" stroke="black" width="2.765957446808443" x="401.06382978723406" y="0"/>
<rect fill="red" height="0" stroke="black" width="2.7659574468086134" x="403.8297872340425" y="0"/>
<rect fill="red" height="0" stroke="black" width="2.7659574468084998" x="406.5957446808511" y="0"/>
<rect fill="red" height="0" stroke="black" width="2.7659574468084998" x="409.3617021276596" y="0"/>
<rect fill="red" height="0" stroke="black" width="2.765957446808443" x="412.1276595744681" y="0"/>
<rect fill="red" height="0" stroke="black" width="2.7659574468084998" x="414.89361702127655" y="0"/>
<rect fill="red" height="0" stroke="black" width="2.7659574468085566" x="417.65957446808505" y="0"/>
<rect fill="red" height="0" stroke="black" width="2.7659574468084998" x="420.4255319148936" y="0"/>
<rect fill="red" height="0" stroke="black" width="2.7659574468084998" x="423.1914893617021" y="0"/>
<rect fill="red" height="0" stroke="black" width="2.7659574468086134" x="425.9574468085106" y="0"/>
<rect fill="red" height="0" stroke="black" width="2.7659574468083292" x="428.7234042553192" y="0"/>
<rect fill="red" height="0" stroke="black" width="2.7659574468086134" x="431.48936170212755" y="0"/>
<rect fill="red" height="0" stroke="black" width="2.7659574468084998" x="434.25531914893617" y="0"/>
<rect fill="red" height="0" stroke="black" width="2.7659574468085566" x="437.02127659574467" y="0"/>
<rect fill="red" height="0" stroke="black" width="2.7659574468084998" x="439.7872340425532" y="0"/>
<rect fill="red" height="0" stroke="black" width="2.7659574468084998" x="442.5531914893617" y="0"/>
<rect fill="red" height="0" stroke="black" width="2.765957446808443" x="445.3191489361702" y="0"/>
<rect fill="red" height="0" stroke="black" width="2.7659574468084998" x="448.08510638297867" y="0"/>
<rect fill="red" height="0" stroke="black" width="2.7659574468086134" x="450.85106382978717" y="0"/>
<rect fill="red" height="0" stroke="black" width="2.765957446808443" x="453.6170212765958" y="0"/>
<rect fill="red" height="0" stroke="black" width="2.7659574468086134" x="456.3829787234042" y="0"/>
<rect fill="red" height="0" stroke="black" width="2.7659574468084998" x="459.14893617021283" y="0"/>
<rect fill="red" height="0" stroke="black" width="2.765957446808443" x="461.91489361702133" y="0"/>
<rect fill="red" height="0" stroke="black" width="2.7659574468084998" x="464.6808510638298" y="0"/>
<rect fill="red" height="0" stroke="black" width="2.7659574468084998" x="467.4468085106383" y="0"/>
<rect fill="red" height="0" stroke="black" width="2.7659574468085566" x="470.2127659574468" y="0"/>
<rect fill="red" height="0" stroke="black" width="2.7659574468084998" x="472.97872340425533" y="0"/>
<rect fill="red" height="0" stroke="black" width="2.7659574468086134" x="475.74468085106383" y="0"/>
<rect fill="red" height="0" stroke="black" width="2.7659574468083292" x="478.51063829787245" y="0"/>
<rect fill="red" height="0" stroke="black" width="2.7659574468086134" x="481.2765957446808" y="0"/>
<rect fill="red" height="0" stroke="black" width="2.7659574468084998" x="484.0425531914894" y="0"/>
<rect fill="red" height="0" stroke="black" width="2.7659574468084998" x="486.8085106382979" y="0"/>
<rect fill="red" height="0" stroke="black" width="2.7659574468085566" x="489.5744680851064" y="0"/>
<rect fill="red" height="0" stroke="black" width="2.7659574468084998" x="492.34042553191495" y="0"/>
<rect fill="red" height="0" stroke="black" width="2.765957446808443" x="495.10638297872345" y="0"/>
<rect fill="red" height="0" stroke="black" width="2.7659574468084998" x="497.8723404255319" y="0"/>
<rect fill="red" height="0" stroke="black" width="2.7659574468084998" x="500.6382978723404" y="0"/>
<rect fill="red" height="0" stroke="black" width="2.7659574468086134" x="503.4042553191489" y="0"/>
<rect fill="red" height="0" stroke="black" width="2.765957446808443" x="506.1702127659575" y="0"/>
<rect fill="red" height="0" stroke="black" width="2.7659574468086134" x="508.93617021276594" y="0"/>
<rect fill="red" height="0" stroke="black" width="2.765957446808443" x="511.70212765957456" y="0"/>
<rect fill="red" height="0" stroke="black" width="2.765957446808443" x="514.468085106383" y="0"/>
<rect fill="red" height="1.4107883817427387" stroke="black" width="2.7659574468085566" x="517.2340425531914" y="-1.4107883817427387"/>
</g>
<g>
<g>
<line stroke="black" stroke-width="1" x1="94.80662983425414" x2="94.80662983425414" y1="0" y2="10"/>
<line stroke="black" stroke-width="1" x1="209.72375690607734" x2="209.72375690607734" y1="0" y2="10"/>
<line stroke="black" stroke-width="1" x1="324.64088397790056" x2="324.64088397790056" y1="0" y2="10"/>
<line stroke="black" stroke-width="1" x1="439.55801104972375" x2="439.55801104972375" y1="0" y2="10"/>
</g>
<line stroke="black" stroke-width="1" x1="0" x2="520" y1="0" y2="0"/>
<g>
<text font-size="12" text-anchor="middle" x="94.80662983425414" y="20">
40
</text>
<text font-size="12" text-anchor="middle" x="209.72375690607734" y="20">
80
</text>
<text font-size="12" text-anchor="middle" x="324.64088397790056" y="20">
120
</text>
<text font-size="12" text-anchor="middle" x="439.55801104972375" y="20">
160
</text>
</g>
<text font-size="12" text-anchor="middle" x="260" y="30">

</text>
</g>
<g>
<g>
<line stroke="black" stroke-width="1" x1="0" x2="-10" y1="0" y2="0"/>
<line stroke="black" stroke-width="1" x1="0" x2="-10" y1="-70.53941908713693" y2="-70.53941908713693"/>
<line stroke="black" stroke-width="1" x1="0" x2="-10" y1="-141.07883817427387" y2="-141.07883817427387"/>
<line stroke="black" stroke-width="1" x1="0" x2="-10" y1="-211.61825726141078" y2="-211.61825726141078"/>
<line stroke="black" stroke-width="1" x1="0" x2="-10" y1="-282.15767634854774" y2="-282.15767634854774"/>
</g>
<line stroke="black" stroke-width="1" x1="0" x2="0" y1="0" y2="-340"/>
<g>
<text dominant-baseline="middle" font-size="12" text-anchor="end" x="-15" y="0">
0
</text>
<text dominant-baseline="middle" font-size="12" text-anchor="end" x="-15" y="-70.53941908713693">
50
</text>
<text dominant-baseline="middle" font-size="12" text-anchor="end" x="-15" y="-141.07883817427387">
100
</text>
<text dominant-baseline="middle" font-size="12" text-anchor="end" x="-15" y="-211.61825726141078">
150
</text>
<text dominant-baseline="middle" font-size="12" text-anchor="end" x="-15" y="-282.15767634854774">
200
</text>
</g>
<text font-size="12" text-anchor="middle" transform="rotate(-90 -30 -170)" x="-30" y="-170">

</text>
</g>
</g>
</svg>